G75*
%MOIN*%
%OFA0B0*%
%FSLAX25Y25*%
%IPPOS*%
%LPD*%
%AMOC8*
5,1,8,0,0,1.08239X$1,22.5*
%
%ADD10C,0.01000*%
%ADD11C,0.01200*%
%ADD12C,0.00700*%
%ADD13C,0.01300*%
%ADD14C,0.00600*%
%ADD15C,0.00800*%
%ADD16C,0.00500*%
%ADD17C,0.00000*%
%ADD18C,0.01100*%
%ADD19C,0.00400*%
%ADD20R,0.01181X0.00591*%
%ADD21R,0.01181X0.01181*%
%ADD22C,0.00300*%
%ADD23C,0.00866*%
D10*
X0081798Y0009437D02*
X0081798Y0211563D01*
X0081800Y0211687D01*
X0081806Y0211810D01*
X0081815Y0211934D01*
X0081829Y0212056D01*
X0081846Y0212179D01*
X0081868Y0212301D01*
X0081893Y0212422D01*
X0081922Y0212542D01*
X0081954Y0212661D01*
X0081991Y0212780D01*
X0082031Y0212897D01*
X0082074Y0213012D01*
X0082122Y0213127D01*
X0082173Y0213239D01*
X0082227Y0213350D01*
X0082285Y0213460D01*
X0082346Y0213567D01*
X0082411Y0213673D01*
X0082479Y0213776D01*
X0082550Y0213877D01*
X0082624Y0213976D01*
X0082701Y0214073D01*
X0082782Y0214167D01*
X0082865Y0214258D01*
X0082951Y0214347D01*
X0083040Y0214433D01*
X0083131Y0214516D01*
X0083225Y0214597D01*
X0083322Y0214674D01*
X0083421Y0214748D01*
X0083522Y0214819D01*
X0083625Y0214887D01*
X0083731Y0214952D01*
X0083838Y0215013D01*
X0083948Y0215071D01*
X0084059Y0215125D01*
X0084171Y0215176D01*
X0084286Y0215224D01*
X0084401Y0215267D01*
X0084518Y0215307D01*
X0084637Y0215344D01*
X0084756Y0215376D01*
X0084876Y0215405D01*
X0084997Y0215430D01*
X0085119Y0215452D01*
X0085242Y0215469D01*
X0085364Y0215483D01*
X0085488Y0215492D01*
X0085611Y0215498D01*
X0085735Y0215500D01*
X0335798Y0215500D01*
X0341798Y0209500D01*
X0341798Y0164500D01*
X0351798Y0154500D01*
X0351798Y0025500D01*
X0341798Y0015500D01*
X0341798Y0009437D01*
X0341796Y0009313D01*
X0341790Y0009190D01*
X0341781Y0009066D01*
X0341767Y0008944D01*
X0341750Y0008821D01*
X0341728Y0008699D01*
X0341703Y0008578D01*
X0341674Y0008458D01*
X0341642Y0008339D01*
X0341605Y0008220D01*
X0341565Y0008103D01*
X0341522Y0007988D01*
X0341474Y0007873D01*
X0341423Y0007761D01*
X0341369Y0007650D01*
X0341311Y0007540D01*
X0341250Y0007433D01*
X0341185Y0007327D01*
X0341117Y0007224D01*
X0341046Y0007123D01*
X0340972Y0007024D01*
X0340895Y0006927D01*
X0340814Y0006833D01*
X0340731Y0006742D01*
X0340645Y0006653D01*
X0340556Y0006567D01*
X0340465Y0006484D01*
X0340371Y0006403D01*
X0340274Y0006326D01*
X0340175Y0006252D01*
X0340074Y0006181D01*
X0339971Y0006113D01*
X0339865Y0006048D01*
X0339758Y0005987D01*
X0339648Y0005929D01*
X0339537Y0005875D01*
X0339425Y0005824D01*
X0339310Y0005776D01*
X0339195Y0005733D01*
X0339078Y0005693D01*
X0338959Y0005656D01*
X0338840Y0005624D01*
X0338720Y0005595D01*
X0338599Y0005570D01*
X0338477Y0005548D01*
X0338354Y0005531D01*
X0338232Y0005517D01*
X0338108Y0005508D01*
X0337985Y0005502D01*
X0337861Y0005500D01*
X0085735Y0005500D01*
X0085611Y0005502D01*
X0085488Y0005508D01*
X0085364Y0005517D01*
X0085242Y0005531D01*
X0085119Y0005548D01*
X0084997Y0005570D01*
X0084876Y0005595D01*
X0084756Y0005624D01*
X0084637Y0005656D01*
X0084518Y0005693D01*
X0084401Y0005733D01*
X0084286Y0005776D01*
X0084171Y0005824D01*
X0084059Y0005875D01*
X0083948Y0005929D01*
X0083838Y0005987D01*
X0083731Y0006048D01*
X0083625Y0006113D01*
X0083522Y0006181D01*
X0083421Y0006252D01*
X0083322Y0006326D01*
X0083225Y0006403D01*
X0083131Y0006484D01*
X0083040Y0006567D01*
X0082951Y0006653D01*
X0082865Y0006742D01*
X0082782Y0006833D01*
X0082701Y0006927D01*
X0082624Y0007024D01*
X0082550Y0007123D01*
X0082479Y0007224D01*
X0082411Y0007327D01*
X0082346Y0007433D01*
X0082285Y0007540D01*
X0082227Y0007650D01*
X0082173Y0007761D01*
X0082122Y0007873D01*
X0082074Y0007988D01*
X0082031Y0008103D01*
X0081991Y0008220D01*
X0081954Y0008339D01*
X0081922Y0008458D01*
X0081893Y0008578D01*
X0081868Y0008699D01*
X0081846Y0008821D01*
X0081829Y0008944D01*
X0081815Y0009066D01*
X0081806Y0009190D01*
X0081800Y0009313D01*
X0081798Y0009437D01*
X0289192Y0034541D02*
X0289192Y0038277D01*
X0291060Y0040146D01*
X0292928Y0038277D01*
X0292928Y0034541D01*
X0295269Y0034541D02*
X0295269Y0040146D01*
X0299005Y0034541D01*
X0299005Y0040146D01*
X0301346Y0038277D02*
X0303214Y0040146D01*
X0305082Y0038277D01*
X0305082Y0034541D01*
X0307423Y0034541D02*
X0311160Y0034541D01*
X0313500Y0035475D02*
X0314434Y0034541D01*
X0316303Y0034541D01*
X0317237Y0035475D01*
X0317237Y0039212D01*
X0316303Y0040146D01*
X0314434Y0040146D01*
X0313500Y0039212D01*
X0313500Y0035475D01*
X0319577Y0035475D02*
X0320512Y0034541D01*
X0322380Y0034541D01*
X0323314Y0035475D01*
X0323314Y0037343D01*
X0321446Y0037343D01*
X0319577Y0035475D02*
X0319577Y0039212D01*
X0320512Y0040146D01*
X0322380Y0040146D01*
X0323314Y0039212D01*
X0307423Y0040146D02*
X0307423Y0034541D01*
X0305082Y0037343D02*
X0301346Y0037343D01*
X0301346Y0038277D02*
X0301346Y0034541D01*
X0292928Y0037343D02*
X0289192Y0037343D01*
X0272589Y0180859D02*
X0268853Y0180859D01*
X0268853Y0186464D01*
X0266512Y0184596D02*
X0266512Y0180859D01*
X0266512Y0183661D02*
X0262776Y0183661D01*
X0262776Y0184596D02*
X0262776Y0180859D01*
X0258567Y0180859D02*
X0258567Y0186464D01*
X0256699Y0186464D02*
X0260435Y0186464D01*
X0262776Y0184596D02*
X0264644Y0186464D01*
X0266512Y0184596D01*
X0254515Y0186464D02*
X0252647Y0186464D01*
X0253581Y0186464D02*
X0253581Y0180859D01*
X0252647Y0180859D02*
X0254515Y0180859D01*
X0250306Y0181793D02*
X0250306Y0183661D01*
X0248438Y0183661D01*
X0246570Y0181793D02*
X0247504Y0180859D01*
X0249372Y0180859D01*
X0250306Y0181793D01*
X0246570Y0181793D02*
X0246570Y0185530D01*
X0247504Y0186464D01*
X0249372Y0186464D01*
X0250306Y0185530D01*
X0244387Y0186464D02*
X0242518Y0186464D01*
X0243453Y0186464D02*
X0243453Y0180859D01*
X0244387Y0180859D02*
X0242518Y0180859D01*
X0240178Y0181793D02*
X0240178Y0185530D01*
X0239244Y0186464D01*
X0236441Y0186464D01*
X0236441Y0180859D01*
X0239244Y0180859D01*
X0240178Y0181793D01*
D11*
X0233298Y0183000D02*
X0201298Y0183000D01*
X0196798Y0187500D01*
X0275298Y0183000D02*
X0307298Y0183000D01*
X0311798Y0187500D01*
X0318298Y0187000D02*
X0321798Y0190500D01*
X0325298Y0187000D01*
X0318298Y0187000D01*
X0319798Y0187500D02*
X0321798Y0189500D01*
X0323798Y0187500D01*
X0320798Y0187500D01*
X0322298Y0188500D01*
X0328798Y0190500D02*
X0332298Y0187000D01*
X0335798Y0190500D01*
X0328798Y0190500D01*
X0330298Y0190000D02*
X0334298Y0190000D01*
X0332298Y0188000D01*
X0330798Y0189500D01*
X0332798Y0189500D01*
X0332298Y0189000D02*
X0332298Y0188500D01*
X0329798Y0038000D02*
X0327798Y0038000D01*
X0329798Y0038000D02*
X0334298Y0033500D01*
X0285798Y0038000D02*
X0283798Y0038000D01*
X0279298Y0033500D01*
D12*
X0280313Y0031081D02*
X0283583Y0027812D01*
X0284400Y0028629D01*
X0284400Y0030264D01*
X0283583Y0031081D01*
X0280313Y0031081D01*
X0279496Y0030264D01*
X0279496Y0028629D01*
X0280313Y0027812D01*
X0283583Y0027812D01*
X0284400Y0025925D02*
X0281131Y0025925D01*
X0279496Y0024290D01*
X0281131Y0022656D01*
X0284400Y0022656D01*
X0281948Y0022656D02*
X0281948Y0025925D01*
X0289496Y0024290D02*
X0291131Y0025925D01*
X0294400Y0025925D01*
X0294400Y0027812D02*
X0294400Y0031081D01*
X0294400Y0029447D02*
X0289496Y0029447D01*
X0291131Y0027812D01*
X0291948Y0025925D02*
X0291948Y0022656D01*
X0291131Y0022656D02*
X0289496Y0024290D01*
X0291131Y0022656D02*
X0294400Y0022656D01*
X0299496Y0024290D02*
X0301131Y0025925D01*
X0304400Y0025925D01*
X0304400Y0027812D02*
X0301131Y0031081D01*
X0300313Y0031081D01*
X0299496Y0030264D01*
X0299496Y0028629D01*
X0300313Y0027812D01*
X0301948Y0025925D02*
X0301948Y0022656D01*
X0301131Y0022656D02*
X0299496Y0024290D01*
X0301131Y0022656D02*
X0304400Y0022656D01*
X0309496Y0024290D02*
X0311131Y0025925D01*
X0314400Y0025925D01*
X0313583Y0027812D02*
X0314400Y0028629D01*
X0314400Y0030264D01*
X0313583Y0031081D01*
X0312765Y0031081D01*
X0311948Y0030264D01*
X0311948Y0029447D01*
X0311948Y0030264D02*
X0311131Y0031081D01*
X0310313Y0031081D01*
X0309496Y0030264D01*
X0309496Y0028629D01*
X0310313Y0027812D01*
X0311948Y0025925D02*
X0311948Y0022656D01*
X0311131Y0022656D02*
X0309496Y0024290D01*
X0311131Y0022656D02*
X0314400Y0022656D01*
X0319496Y0024290D02*
X0321131Y0025925D01*
X0324400Y0025925D01*
X0321948Y0025925D02*
X0321948Y0022656D01*
X0321131Y0022656D02*
X0319496Y0024290D01*
X0321131Y0022656D02*
X0324400Y0022656D01*
X0329496Y0024290D02*
X0331131Y0025925D01*
X0334400Y0025925D01*
X0333583Y0027812D02*
X0334400Y0028629D01*
X0334400Y0030264D01*
X0333583Y0031081D01*
X0331948Y0031081D01*
X0331131Y0030264D01*
X0331131Y0029447D01*
X0331948Y0027812D01*
X0329496Y0027812D01*
X0329496Y0031081D01*
X0324400Y0030264D02*
X0319496Y0030264D01*
X0321948Y0027812D01*
X0321948Y0031081D01*
X0331948Y0025925D02*
X0331948Y0022656D01*
X0331131Y0022656D02*
X0329496Y0024290D01*
X0331131Y0022656D02*
X0334400Y0022656D01*
X0304400Y0027812D02*
X0304400Y0031081D01*
X0264448Y0031444D02*
X0259544Y0031444D01*
X0264448Y0034713D01*
X0259544Y0034713D01*
X0254500Y0033696D02*
X0254500Y0036148D01*
X0253683Y0036965D01*
X0250413Y0036965D01*
X0249596Y0036148D01*
X0249596Y0033696D01*
X0254500Y0033696D01*
X0254500Y0031809D02*
X0249596Y0031809D01*
X0249596Y0028539D02*
X0254500Y0031809D01*
X0259544Y0029641D02*
X0259544Y0028006D01*
X0259544Y0028824D02*
X0264448Y0028824D01*
X0264448Y0029641D02*
X0264448Y0028006D01*
X0262813Y0026119D02*
X0259544Y0026119D01*
X0259544Y0022850D02*
X0262813Y0022850D01*
X0264448Y0024485D01*
X0262813Y0026119D01*
X0254500Y0025835D02*
X0254500Y0024200D01*
X0253683Y0023383D01*
X0250413Y0023383D01*
X0249596Y0024200D01*
X0249596Y0025835D01*
X0250413Y0026653D01*
X0252048Y0026653D02*
X0252048Y0025018D01*
X0252048Y0026653D02*
X0253683Y0026653D01*
X0254500Y0025835D01*
X0254500Y0028539D02*
X0249596Y0028539D01*
X0244500Y0028539D02*
X0239596Y0028539D01*
X0244500Y0031809D01*
X0239596Y0031809D01*
X0239596Y0033696D02*
X0239596Y0036148D01*
X0240413Y0036965D01*
X0243683Y0036965D01*
X0244500Y0036148D01*
X0244500Y0033696D01*
X0239596Y0033696D01*
X0234448Y0030641D02*
X0232813Y0029006D01*
X0229544Y0029006D01*
X0229544Y0027119D02*
X0229544Y0023850D01*
X0231996Y0023850D01*
X0231179Y0025485D01*
X0231179Y0026302D01*
X0231996Y0027119D01*
X0233631Y0027119D01*
X0234448Y0026302D01*
X0234448Y0024667D01*
X0233631Y0023850D01*
X0239596Y0024200D02*
X0240413Y0023383D01*
X0243683Y0023383D01*
X0244500Y0024200D01*
X0244500Y0025835D01*
X0243683Y0026653D01*
X0242048Y0026653D01*
X0242048Y0025018D01*
X0240413Y0026653D02*
X0239596Y0025835D01*
X0239596Y0024200D01*
X0234448Y0030641D02*
X0232813Y0032276D01*
X0229544Y0032276D01*
X0228048Y0188537D02*
X0228048Y0191807D01*
X0228048Y0190172D02*
X0223144Y0190172D01*
X0224779Y0188537D01*
X0218048Y0188537D02*
X0218048Y0191807D01*
X0218048Y0190172D02*
X0213144Y0190172D01*
X0214779Y0188537D01*
X0208048Y0188537D02*
X0208048Y0191807D01*
X0208048Y0190172D02*
X0203144Y0190172D01*
X0204779Y0188537D01*
X0198048Y0188537D02*
X0198048Y0191807D01*
X0198048Y0190172D02*
X0193144Y0190172D01*
X0194779Y0188537D01*
X0193961Y0193694D02*
X0193144Y0194511D01*
X0193144Y0196146D01*
X0193961Y0196963D01*
X0194779Y0196963D01*
X0195596Y0196146D01*
X0196413Y0196963D01*
X0197231Y0196963D01*
X0198048Y0196146D01*
X0198048Y0194511D01*
X0197231Y0193694D01*
X0195596Y0195328D02*
X0195596Y0196146D01*
X0203144Y0196146D02*
X0203144Y0194511D01*
X0203961Y0193694D01*
X0203144Y0196146D02*
X0203961Y0196963D01*
X0204779Y0196963D01*
X0208048Y0193694D01*
X0208048Y0196963D01*
X0213144Y0195328D02*
X0214779Y0193694D01*
X0213144Y0195328D02*
X0218048Y0195328D01*
X0218048Y0193694D02*
X0218048Y0196963D01*
X0223144Y0196146D02*
X0223144Y0194511D01*
X0223961Y0193694D01*
X0227231Y0193694D01*
X0223961Y0196963D01*
X0227231Y0196963D01*
X0228048Y0196146D01*
X0228048Y0194511D01*
X0227231Y0193694D01*
X0223961Y0196963D02*
X0223144Y0196146D01*
X0233144Y0196146D02*
X0233144Y0194511D01*
X0233961Y0193694D01*
X0234779Y0193694D01*
X0235596Y0194511D01*
X0235596Y0196963D01*
X0237231Y0196963D02*
X0233961Y0196963D01*
X0233144Y0196146D01*
X0237231Y0196963D02*
X0238048Y0196146D01*
X0238048Y0194511D01*
X0237231Y0193694D01*
X0243144Y0194511D02*
X0243144Y0196146D01*
X0243961Y0196963D01*
X0244779Y0196963D01*
X0245596Y0196146D01*
X0245596Y0194511D01*
X0244779Y0193694D01*
X0243961Y0193694D01*
X0243144Y0194511D01*
X0245596Y0194511D02*
X0246413Y0193694D01*
X0247231Y0193694D01*
X0248048Y0194511D01*
X0248048Y0196146D01*
X0247231Y0196963D01*
X0246413Y0196963D01*
X0245596Y0196146D01*
X0259144Y0196963D02*
X0259144Y0193694D01*
X0259144Y0196963D02*
X0259961Y0196963D01*
X0263231Y0193694D01*
X0264048Y0193694D01*
X0269144Y0196963D02*
X0269961Y0195328D01*
X0271596Y0193694D01*
X0271596Y0196146D01*
X0272413Y0196963D01*
X0273231Y0196963D01*
X0274048Y0196146D01*
X0274048Y0194511D01*
X0273231Y0193694D01*
X0271596Y0193694D01*
X0279144Y0193694D02*
X0279144Y0196963D01*
X0280779Y0196146D02*
X0281596Y0196963D01*
X0283231Y0196963D01*
X0284048Y0196146D01*
X0284048Y0194511D01*
X0283231Y0193694D01*
X0281596Y0193694D02*
X0280779Y0195328D01*
X0280779Y0196146D01*
X0281596Y0193694D02*
X0279144Y0193694D01*
X0289144Y0196146D02*
X0291596Y0193694D01*
X0291596Y0196963D01*
X0294048Y0196146D02*
X0289144Y0196146D01*
X0299144Y0196146D02*
X0299144Y0194511D01*
X0299961Y0193694D01*
X0301596Y0195328D02*
X0301596Y0196146D01*
X0302413Y0196963D01*
X0303231Y0196963D01*
X0304048Y0196146D01*
X0304048Y0194511D01*
X0303231Y0193694D01*
X0301596Y0196146D02*
X0300779Y0196963D01*
X0299961Y0196963D01*
X0299144Y0196146D01*
X0309144Y0196146D02*
X0309144Y0194511D01*
X0309961Y0193694D01*
X0309144Y0196146D02*
X0309961Y0196963D01*
X0310779Y0196963D01*
X0314048Y0193694D01*
X0314048Y0196963D01*
X0319144Y0195328D02*
X0324048Y0195328D01*
X0324048Y0193694D02*
X0324048Y0196963D01*
X0320779Y0193694D02*
X0319144Y0195328D01*
X0329144Y0194511D02*
X0329144Y0196146D01*
X0329961Y0196963D01*
X0333231Y0193694D01*
X0334048Y0194511D01*
X0334048Y0196146D01*
X0333231Y0196963D01*
X0329961Y0196963D01*
X0329144Y0194511D02*
X0329961Y0193694D01*
X0333231Y0193694D01*
D13*
X0243150Y0139976D02*
X0243150Y0138358D01*
X0243150Y0135122D02*
X0243150Y0128650D01*
X0241532Y0128650D02*
X0244768Y0128650D01*
X0248284Y0128650D02*
X0248284Y0135122D01*
X0253138Y0135122D01*
X0254756Y0133504D01*
X0254756Y0128650D01*
X0258413Y0130268D02*
X0260031Y0128650D01*
X0263267Y0128650D01*
X0264885Y0130268D01*
X0264885Y0133504D01*
X0263267Y0135122D01*
X0260031Y0135122D01*
X0258413Y0133504D01*
X0258413Y0130268D01*
X0243150Y0135122D02*
X0241532Y0135122D01*
X0237875Y0135122D02*
X0237875Y0128650D01*
X0233021Y0128650D01*
X0231403Y0130268D01*
X0231403Y0135122D01*
X0227747Y0136740D02*
X0226129Y0138358D01*
X0221274Y0138358D01*
X0221274Y0128650D01*
X0226129Y0128650D01*
X0227747Y0130268D01*
X0227747Y0136740D01*
X0217688Y0135122D02*
X0216070Y0135122D01*
X0212834Y0131886D01*
X0212834Y0128650D02*
X0212834Y0135122D01*
X0209177Y0133504D02*
X0207559Y0135122D01*
X0204323Y0135122D01*
X0202705Y0133504D01*
X0202705Y0130268D01*
X0204323Y0128650D01*
X0207559Y0128650D01*
X0209177Y0130268D01*
X0209177Y0133504D01*
X0199049Y0133504D02*
X0199049Y0130268D01*
X0197431Y0128650D01*
X0194195Y0128650D01*
X0192577Y0130268D01*
X0192577Y0133504D01*
X0194195Y0135122D01*
X0197431Y0135122D01*
X0199049Y0133504D01*
X0188920Y0133504D02*
X0188920Y0130268D01*
X0187302Y0128650D01*
X0182448Y0128650D01*
X0182448Y0125414D02*
X0182448Y0135122D01*
X0187302Y0135122D01*
X0188920Y0133504D01*
D14*
X0149298Y0128000D02*
X0149298Y0123000D01*
X0146798Y0120500D01*
X0149298Y0118000D01*
X0149298Y0113000D01*
X0146798Y0110500D01*
X0149298Y0108000D01*
X0149298Y0103000D01*
X0146798Y0100500D01*
X0141798Y0100500D01*
X0139298Y0103000D01*
X0139298Y0108000D01*
X0141798Y0110500D01*
X0139298Y0113000D01*
X0139298Y0118000D01*
X0141798Y0120500D01*
X0139298Y0123000D01*
X0139298Y0128000D01*
X0141798Y0130500D01*
X0146798Y0130500D01*
X0149298Y0128000D01*
X0146798Y0120500D02*
X0141798Y0120500D01*
X0141798Y0110500D02*
X0146798Y0110500D01*
X0191298Y0081000D02*
X0191298Y0059000D01*
X0337298Y0059000D01*
X0337298Y0067500D01*
X0337200Y0067502D01*
X0337102Y0067508D01*
X0337004Y0067517D01*
X0336907Y0067531D01*
X0336810Y0067548D01*
X0336714Y0067569D01*
X0336619Y0067594D01*
X0336525Y0067622D01*
X0336433Y0067655D01*
X0336341Y0067690D01*
X0336251Y0067730D01*
X0336163Y0067772D01*
X0336076Y0067819D01*
X0335992Y0067868D01*
X0335909Y0067921D01*
X0335829Y0067977D01*
X0335750Y0068037D01*
X0335674Y0068099D01*
X0335601Y0068164D01*
X0335530Y0068232D01*
X0335462Y0068303D01*
X0335397Y0068376D01*
X0335335Y0068452D01*
X0335275Y0068531D01*
X0335219Y0068611D01*
X0335166Y0068694D01*
X0335117Y0068778D01*
X0335070Y0068865D01*
X0335028Y0068953D01*
X0334988Y0069043D01*
X0334953Y0069135D01*
X0334920Y0069227D01*
X0334892Y0069321D01*
X0334867Y0069416D01*
X0334846Y0069512D01*
X0334829Y0069609D01*
X0334815Y0069706D01*
X0334806Y0069804D01*
X0334800Y0069902D01*
X0334798Y0070000D01*
X0334800Y0070098D01*
X0334806Y0070196D01*
X0334815Y0070294D01*
X0334829Y0070391D01*
X0334846Y0070488D01*
X0334867Y0070584D01*
X0334892Y0070679D01*
X0334920Y0070773D01*
X0334953Y0070865D01*
X0334988Y0070957D01*
X0335028Y0071047D01*
X0335070Y0071135D01*
X0335117Y0071222D01*
X0335166Y0071306D01*
X0335219Y0071389D01*
X0335275Y0071469D01*
X0335335Y0071548D01*
X0335397Y0071624D01*
X0335462Y0071697D01*
X0335530Y0071768D01*
X0335601Y0071836D01*
X0335674Y0071901D01*
X0335750Y0071963D01*
X0335829Y0072023D01*
X0335909Y0072079D01*
X0335992Y0072132D01*
X0336076Y0072181D01*
X0336163Y0072228D01*
X0336251Y0072270D01*
X0336341Y0072310D01*
X0336433Y0072345D01*
X0336525Y0072378D01*
X0336619Y0072406D01*
X0336714Y0072431D01*
X0336810Y0072452D01*
X0336907Y0072469D01*
X0337004Y0072483D01*
X0337102Y0072492D01*
X0337200Y0072498D01*
X0337298Y0072500D01*
X0337298Y0081000D01*
X0191298Y0081000D01*
X0207494Y0047262D02*
X0207494Y0043926D01*
X0207494Y0045594D02*
X0212498Y0045594D01*
X0212498Y0042105D02*
X0212498Y0038769D01*
X0207494Y0038769D01*
X0207494Y0042105D01*
X0209996Y0040437D02*
X0209996Y0038769D01*
X0210830Y0036949D02*
X0211664Y0036949D01*
X0212498Y0036115D01*
X0212498Y0034447D01*
X0211664Y0033613D01*
X0209996Y0034447D02*
X0209996Y0036115D01*
X0210830Y0036949D01*
X0208328Y0036949D02*
X0207494Y0036115D01*
X0207494Y0034447D01*
X0208328Y0033613D01*
X0209162Y0033613D01*
X0209996Y0034447D01*
X0212498Y0031793D02*
X0212498Y0028456D01*
X0207494Y0028456D01*
X0207494Y0031793D01*
X0209996Y0030124D02*
X0209996Y0028456D01*
X0209996Y0026636D02*
X0210830Y0025802D01*
X0210830Y0023300D01*
X0212498Y0023300D02*
X0207494Y0023300D01*
X0207494Y0025802D01*
X0208328Y0026636D01*
X0209996Y0026636D01*
X0210830Y0024968D02*
X0212498Y0026636D01*
X0218494Y0027956D02*
X0221830Y0027956D01*
X0223498Y0029624D01*
X0221830Y0031293D01*
X0218494Y0031293D01*
X0219328Y0033113D02*
X0218494Y0033947D01*
X0218494Y0035615D01*
X0219328Y0036449D01*
X0220162Y0036449D01*
X0220996Y0035615D01*
X0221830Y0036449D01*
X0222664Y0036449D01*
X0223498Y0035615D01*
X0223498Y0033947D01*
X0222664Y0033113D01*
X0220996Y0034781D02*
X0220996Y0035615D01*
X0203998Y0035230D02*
X0202330Y0033562D01*
X0202330Y0034396D02*
X0202330Y0031894D01*
X0203998Y0031894D02*
X0198994Y0031894D01*
X0198994Y0034396D01*
X0199828Y0035230D01*
X0201496Y0035230D01*
X0202330Y0034396D01*
X0201496Y0037050D02*
X0201496Y0038718D01*
X0198994Y0037050D02*
X0203998Y0037050D01*
X0203998Y0040387D01*
X0203998Y0042207D02*
X0198994Y0042207D01*
X0198994Y0045543D01*
X0201496Y0043875D02*
X0201496Y0042207D01*
X0198994Y0040387D02*
X0198994Y0037050D01*
X0199828Y0030074D02*
X0198994Y0029240D01*
X0198994Y0027572D01*
X0199828Y0026738D01*
X0203164Y0026738D01*
X0203998Y0027572D01*
X0203998Y0029240D01*
X0203164Y0030074D01*
X0199828Y0030074D01*
X0198994Y0024968D02*
X0198994Y0023300D01*
X0198994Y0024134D02*
X0203998Y0024134D01*
X0203998Y0023300D02*
X0203998Y0024968D01*
X0204298Y0020500D02*
X0199298Y0020500D01*
X0196798Y0018000D01*
X0196798Y0013000D01*
X0199298Y0010500D01*
X0204298Y0010500D01*
X0206798Y0013000D01*
X0206798Y0018000D01*
X0204298Y0020500D01*
X0206798Y0018000D02*
X0209298Y0020500D01*
X0214298Y0020500D01*
X0216798Y0018000D01*
X0219298Y0020500D01*
X0224298Y0020500D01*
X0226798Y0018000D01*
X0229298Y0020500D01*
X0234298Y0020500D01*
X0236798Y0018000D01*
X0236798Y0013000D01*
X0234298Y0010500D01*
X0229298Y0010500D01*
X0226798Y0013000D01*
X0224298Y0010500D01*
X0219298Y0010500D01*
X0216798Y0013000D01*
X0214298Y0010500D01*
X0209298Y0010500D01*
X0206798Y0013000D01*
X0196798Y0013000D02*
X0194298Y0010500D01*
X0189298Y0010500D01*
X0186798Y0013000D01*
X0186798Y0018000D01*
X0189298Y0020500D01*
X0194298Y0020500D01*
X0196798Y0018000D01*
X0216798Y0018000D02*
X0216798Y0013000D01*
X0226798Y0013000D02*
X0226798Y0018000D01*
X0222664Y0022800D02*
X0223498Y0023634D01*
X0223498Y0025302D01*
X0222664Y0026136D01*
X0221830Y0026136D01*
X0220996Y0025302D01*
X0220996Y0024468D01*
X0220996Y0025302D02*
X0220162Y0026136D01*
X0219328Y0026136D01*
X0218494Y0025302D01*
X0218494Y0023634D01*
X0219328Y0022800D01*
X0236798Y0018000D02*
X0239298Y0020500D01*
X0244298Y0020500D01*
X0246798Y0018000D01*
X0249298Y0020500D01*
X0254298Y0020500D01*
X0256798Y0018000D01*
X0259298Y0020500D01*
X0264298Y0020500D01*
X0266798Y0018000D01*
X0266798Y0013000D01*
X0264298Y0010500D01*
X0259298Y0010500D01*
X0256798Y0013000D01*
X0254298Y0010500D01*
X0249298Y0010500D01*
X0246798Y0013000D01*
X0244298Y0010500D01*
X0239298Y0010500D01*
X0236798Y0013000D01*
X0246798Y0013000D02*
X0246798Y0018000D01*
X0256798Y0018000D02*
X0256798Y0013000D01*
X0276798Y0013000D02*
X0279298Y0010500D01*
X0284298Y0010500D01*
X0286798Y0013000D01*
X0289298Y0010500D01*
X0294298Y0010500D01*
X0296798Y0013000D01*
X0296798Y0018000D01*
X0294298Y0020500D01*
X0289298Y0020500D01*
X0286798Y0018000D01*
X0286798Y0013000D01*
X0276798Y0013000D02*
X0276798Y0018000D01*
X0279298Y0020500D01*
X0284298Y0020500D01*
X0286798Y0018000D01*
X0296798Y0018000D02*
X0299298Y0020500D01*
X0304298Y0020500D01*
X0306798Y0018000D01*
X0309298Y0020500D01*
X0314298Y0020500D01*
X0316798Y0018000D01*
X0319298Y0020500D01*
X0324298Y0020500D01*
X0326798Y0018000D01*
X0329298Y0020500D01*
X0334298Y0020500D01*
X0336798Y0018000D01*
X0336798Y0013000D01*
X0334298Y0010500D01*
X0329298Y0010500D01*
X0326798Y0013000D01*
X0324298Y0010500D01*
X0319298Y0010500D01*
X0316798Y0013000D01*
X0314298Y0010500D01*
X0309298Y0010500D01*
X0306798Y0013000D01*
X0304298Y0010500D01*
X0299298Y0010500D01*
X0296798Y0013000D01*
X0306798Y0013000D02*
X0306798Y0018000D01*
X0316798Y0018000D02*
X0316798Y0013000D01*
X0326798Y0013000D02*
X0326798Y0018000D01*
X0329798Y0100500D02*
X0344798Y0100500D01*
X0347298Y0103000D01*
X0347298Y0108000D01*
X0344798Y0110500D01*
X0329798Y0110500D01*
X0327298Y0108000D01*
X0327298Y0103000D01*
X0329798Y0100500D01*
X0329798Y0110500D02*
X0327298Y0113000D01*
X0327298Y0118000D01*
X0329798Y0120500D01*
X0344798Y0120500D01*
X0347298Y0118000D01*
X0347298Y0113000D01*
X0344798Y0110500D01*
X0344798Y0120500D02*
X0347298Y0123000D01*
X0347298Y0128000D01*
X0344798Y0130500D01*
X0329798Y0130500D01*
X0327298Y0128000D01*
X0327298Y0123000D01*
X0329798Y0120500D01*
X0267324Y0175300D02*
X0267324Y0179103D01*
X0266056Y0179103D01*
X0264540Y0179103D02*
X0264540Y0175300D01*
X0266056Y0175300D02*
X0267324Y0175300D01*
X0262005Y0175300D02*
X0262005Y0179103D01*
X0263273Y0177835D01*
X0264540Y0179103D01*
X0260489Y0179103D02*
X0260489Y0175300D01*
X0259221Y0176568D01*
X0257953Y0175300D01*
X0257953Y0179103D01*
X0256437Y0178469D02*
X0256437Y0177202D01*
X0255803Y0176568D01*
X0253902Y0176568D01*
X0253902Y0175300D02*
X0253902Y0179103D01*
X0255803Y0179103D01*
X0256437Y0178469D01*
X0252386Y0177835D02*
X0249850Y0177835D01*
X0249850Y0176568D02*
X0252386Y0176568D01*
X0248334Y0176568D02*
X0245799Y0176568D01*
X0245799Y0177835D02*
X0247701Y0177835D01*
X0248334Y0177835D01*
X0247701Y0179103D02*
X0247701Y0175300D01*
X0246433Y0175300D02*
X0246433Y0179103D01*
X0244366Y0179103D02*
X0243098Y0179103D01*
X0243098Y0175300D01*
X0244366Y0175300D01*
X0227998Y0184934D02*
X0224195Y0184934D01*
X0224195Y0186202D02*
X0227998Y0186202D01*
X0226730Y0186835D02*
X0226730Y0184300D01*
X0225462Y0184300D02*
X0225462Y0186202D01*
X0225462Y0186835D01*
X0233695Y0189934D02*
X0237498Y0189934D01*
X0237498Y0191202D02*
X0233695Y0191202D01*
X0234962Y0191202D02*
X0234962Y0189300D01*
X0236230Y0189300D02*
X0236230Y0191835D01*
X0234962Y0191835D02*
X0234962Y0191202D01*
X0233298Y0200500D02*
X0230798Y0203000D01*
X0230798Y0208000D01*
X0233298Y0210500D01*
X0238298Y0210500D01*
X0240798Y0208000D01*
X0243298Y0210500D01*
X0248298Y0210500D01*
X0250798Y0208000D01*
X0250798Y0203000D01*
X0248298Y0200500D01*
X0243298Y0200500D01*
X0240798Y0203000D01*
X0238298Y0200500D01*
X0233298Y0200500D01*
X0230798Y0203000D02*
X0228298Y0200500D01*
X0223298Y0200500D01*
X0220798Y0203000D01*
X0218298Y0200500D01*
X0213298Y0200500D01*
X0210798Y0203000D01*
X0208298Y0200500D01*
X0203298Y0200500D01*
X0200798Y0203000D01*
X0200798Y0208000D01*
X0203298Y0210500D01*
X0208298Y0210500D01*
X0210798Y0208000D01*
X0213298Y0210500D01*
X0218298Y0210500D01*
X0220798Y0208000D01*
X0223298Y0210500D01*
X0228298Y0210500D01*
X0230798Y0208000D01*
X0240798Y0208000D02*
X0240798Y0203000D01*
X0256798Y0203000D02*
X0256798Y0208000D01*
X0259298Y0210500D01*
X0264298Y0210500D01*
X0266798Y0208000D01*
X0269298Y0210500D01*
X0274298Y0210500D01*
X0276798Y0208000D01*
X0279298Y0210500D01*
X0284298Y0210500D01*
X0286798Y0208000D01*
X0289298Y0210500D01*
X0294298Y0210500D01*
X0296798Y0208000D01*
X0299298Y0210500D01*
X0304298Y0210500D01*
X0306798Y0208000D01*
X0309298Y0210500D01*
X0314298Y0210500D01*
X0316798Y0208000D01*
X0319298Y0210500D01*
X0324298Y0210500D01*
X0326798Y0208000D01*
X0329298Y0210500D01*
X0334298Y0210500D01*
X0336798Y0208000D01*
X0336798Y0203000D01*
X0334298Y0200500D01*
X0329298Y0200500D01*
X0326798Y0203000D01*
X0324298Y0200500D01*
X0319298Y0200500D01*
X0316798Y0203000D01*
X0316798Y0208000D01*
X0316798Y0203000D02*
X0314298Y0200500D01*
X0309298Y0200500D01*
X0306798Y0203000D01*
X0304298Y0200500D01*
X0299298Y0200500D01*
X0296798Y0203000D01*
X0294298Y0200500D01*
X0289298Y0200500D01*
X0286798Y0203000D01*
X0286798Y0208000D01*
X0286798Y0203000D02*
X0284298Y0200500D01*
X0279298Y0200500D01*
X0276798Y0203000D01*
X0274298Y0200500D01*
X0269298Y0200500D01*
X0266798Y0203000D01*
X0264298Y0200500D01*
X0259298Y0200500D01*
X0256798Y0203000D01*
X0266798Y0203000D02*
X0266798Y0208000D01*
X0276798Y0208000D02*
X0276798Y0203000D01*
X0296798Y0203000D02*
X0296798Y0208000D01*
X0306798Y0208000D02*
X0306798Y0203000D01*
X0326798Y0203000D02*
X0326798Y0208000D01*
X0303498Y0191202D02*
X0299695Y0191202D01*
X0300963Y0191202D02*
X0300963Y0191835D01*
X0300963Y0191202D02*
X0300963Y0189300D01*
X0302230Y0189300D02*
X0302230Y0191835D01*
X0303498Y0189934D02*
X0299695Y0189934D01*
X0283498Y0189934D02*
X0279695Y0189934D01*
X0279695Y0191202D02*
X0283498Y0191202D01*
X0282230Y0191835D02*
X0282230Y0189300D01*
X0280963Y0189300D02*
X0280963Y0191202D01*
X0280963Y0191835D01*
X0273998Y0191202D02*
X0270195Y0191202D01*
X0271463Y0191202D02*
X0271463Y0189300D01*
X0272730Y0189300D02*
X0272730Y0191835D01*
X0271463Y0191835D02*
X0271463Y0191202D01*
X0270195Y0189934D02*
X0273998Y0189934D01*
X0319476Y0185341D02*
X0324481Y0182004D01*
X0324481Y0185341D02*
X0319476Y0182004D01*
X0319476Y0180184D02*
X0319476Y0176848D01*
X0319476Y0178516D02*
X0324481Y0178516D01*
X0329494Y0179302D02*
X0329494Y0176800D01*
X0334498Y0176800D01*
X0332830Y0176800D02*
X0332830Y0179302D01*
X0331996Y0180136D01*
X0330328Y0180136D01*
X0329494Y0179302D01*
X0329494Y0181956D02*
X0334498Y0185293D01*
X0334498Y0181956D02*
X0329494Y0185293D01*
X0334498Y0180136D02*
X0332830Y0178468D01*
X0220798Y0203000D02*
X0220798Y0208000D01*
X0210798Y0208000D02*
X0210798Y0203000D01*
X0200798Y0203000D02*
X0198298Y0200500D01*
X0193298Y0200500D01*
X0190798Y0203000D01*
X0188298Y0200500D01*
X0183298Y0200500D01*
X0180798Y0203000D01*
X0178298Y0200500D01*
X0173298Y0200500D01*
X0170798Y0203000D01*
X0170798Y0208000D01*
X0173298Y0210500D01*
X0178298Y0210500D01*
X0180798Y0208000D01*
X0183298Y0210500D01*
X0188298Y0210500D01*
X0190798Y0208000D01*
X0193298Y0210500D01*
X0198298Y0210500D01*
X0200798Y0208000D01*
X0190798Y0208000D02*
X0190798Y0203000D01*
X0180798Y0203000D02*
X0180798Y0208000D01*
X0170798Y0208000D02*
X0168298Y0210500D01*
X0163298Y0210500D01*
X0160798Y0208000D01*
X0158298Y0210500D01*
X0153298Y0210500D01*
X0150798Y0208000D01*
X0150798Y0203000D01*
X0153298Y0200500D01*
X0158298Y0200500D01*
X0160798Y0203000D01*
X0160798Y0208000D01*
X0160798Y0203000D02*
X0163298Y0200500D01*
X0168298Y0200500D01*
X0170798Y0203000D01*
X0169215Y0198032D02*
X0165879Y0198032D01*
X0164211Y0196364D01*
X0165879Y0194696D01*
X0169215Y0194696D01*
X0168381Y0192875D02*
X0165045Y0192875D01*
X0164211Y0192041D01*
X0164211Y0189539D01*
X0169215Y0189539D01*
X0169215Y0192041D01*
X0168381Y0192875D01*
X0166713Y0194696D02*
X0166713Y0198032D01*
X0172711Y0197532D02*
X0172711Y0194196D01*
X0177715Y0194196D01*
X0177715Y0192375D02*
X0177715Y0189039D01*
X0172711Y0189039D01*
X0172711Y0192375D01*
X0175213Y0190707D02*
X0175213Y0189039D01*
X0175213Y0187219D02*
X0176047Y0186385D01*
X0176047Y0183883D01*
X0176047Y0185551D02*
X0177715Y0187219D01*
X0175213Y0187219D02*
X0173545Y0187219D01*
X0172711Y0186385D01*
X0172711Y0183883D01*
X0177715Y0183883D01*
X0177715Y0182063D02*
X0174379Y0182063D01*
X0172711Y0180394D01*
X0174379Y0178726D01*
X0177715Y0178726D01*
X0175213Y0178726D02*
X0175213Y0182063D01*
X0169215Y0185217D02*
X0168381Y0184383D01*
X0169215Y0185217D02*
X0169215Y0186885D01*
X0168381Y0187719D01*
X0167547Y0187719D01*
X0166713Y0186885D01*
X0166713Y0185217D01*
X0165879Y0184383D01*
X0165045Y0184383D01*
X0164211Y0185217D01*
X0164211Y0186885D01*
X0165045Y0187719D01*
X0157715Y0186385D02*
X0157715Y0184717D01*
X0156881Y0183883D01*
X0155213Y0184717D02*
X0154379Y0183883D01*
X0153545Y0183883D01*
X0152711Y0184717D01*
X0152711Y0186385D01*
X0153545Y0187219D01*
X0153545Y0189039D02*
X0152711Y0189873D01*
X0152711Y0191541D01*
X0153545Y0192375D01*
X0152711Y0194196D02*
X0157715Y0194196D01*
X0157715Y0197532D01*
X0156881Y0192375D02*
X0157715Y0191541D01*
X0157715Y0189873D01*
X0156881Y0189039D01*
X0153545Y0189039D01*
X0156047Y0187219D02*
X0156881Y0187219D01*
X0157715Y0186385D01*
X0156047Y0187219D02*
X0155213Y0186385D01*
X0155213Y0184717D01*
X0175213Y0194196D02*
X0175213Y0195864D01*
X0183169Y0196598D02*
X0183169Y0194096D01*
X0188173Y0194096D01*
X0188173Y0196598D01*
X0187339Y0197432D01*
X0184003Y0197432D01*
X0183169Y0196598D01*
X0183169Y0192275D02*
X0188173Y0192275D01*
X0183169Y0188939D01*
X0188173Y0188939D01*
X0187339Y0187119D02*
X0185671Y0187119D01*
X0185671Y0185451D01*
X0187339Y0187119D02*
X0188173Y0186285D01*
X0188173Y0184617D01*
X0187339Y0183783D01*
X0184003Y0183783D01*
X0183169Y0184617D01*
X0183169Y0186285D01*
X0184003Y0187119D01*
X0214195Y0186202D02*
X0217998Y0186202D01*
X0217998Y0184934D02*
X0214195Y0184934D01*
X0215462Y0184300D02*
X0215462Y0186202D01*
X0215462Y0186835D01*
X0216730Y0186835D02*
X0216730Y0184300D01*
D15*
X0118798Y0153402D02*
X0118798Y0127598D01*
X0104798Y0127598D01*
X0104798Y0153402D01*
X0118798Y0153402D01*
X0107104Y0155801D02*
X0105703Y0154400D01*
X0104302Y0155801D01*
X0104302Y0158604D01*
X0102500Y0158604D02*
X0099698Y0158604D01*
X0099698Y0156502D01*
X0101099Y0157202D01*
X0101800Y0157202D01*
X0102500Y0156502D01*
X0102500Y0155101D01*
X0101800Y0154400D01*
X0100399Y0154400D01*
X0099698Y0155101D01*
X0107104Y0155801D02*
X0107104Y0158604D01*
X0107508Y0103604D02*
X0108208Y0102903D01*
X0108208Y0102202D01*
X0107508Y0101502D01*
X0108208Y0100801D01*
X0108208Y0100101D01*
X0107508Y0099400D01*
X0106106Y0099400D01*
X0105406Y0100101D01*
X0104798Y0098402D02*
X0118798Y0098402D01*
X0118798Y0072598D01*
X0104798Y0072598D01*
X0104798Y0098402D01*
X0103604Y0100801D02*
X0103604Y0103604D01*
X0105406Y0102903D02*
X0106106Y0103604D01*
X0107508Y0103604D01*
X0107508Y0101502D02*
X0106807Y0101502D01*
X0103604Y0100801D02*
X0102203Y0099400D01*
X0100802Y0100801D01*
X0100802Y0103604D01*
X0099000Y0102903D02*
X0099000Y0102202D01*
X0098300Y0101502D01*
X0099000Y0100801D01*
X0099000Y0100101D01*
X0098300Y0099400D01*
X0096899Y0099400D01*
X0096198Y0100101D01*
X0097599Y0101502D02*
X0098300Y0101502D01*
X0099000Y0102903D02*
X0098300Y0103604D01*
X0096899Y0103604D01*
X0096198Y0102903D01*
X0150038Y0055437D02*
X0150038Y0047563D01*
X0154066Y0051500D01*
X0150038Y0055437D01*
X0323326Y0123791D02*
X0326128Y0123791D01*
X0324727Y0123791D02*
X0324727Y0127995D01*
X0323326Y0126594D01*
D16*
X0105298Y0018500D02*
X0074698Y0018500D01*
X0074698Y0053900D01*
X0088398Y0053900D01*
X0088398Y0018600D01*
X0126548Y0018500D02*
X0127798Y0018500D01*
X0127798Y0027250D01*
X0127798Y0048500D02*
X0127798Y0053900D01*
X0088398Y0053900D01*
X0190642Y0113082D02*
X0190642Y0116585D01*
X0192393Y0116585D01*
X0192977Y0116001D01*
X0192977Y0114834D01*
X0192393Y0114250D01*
X0190642Y0114250D01*
X0189354Y0114250D02*
X0188770Y0114834D01*
X0188770Y0117169D01*
X0188187Y0116585D02*
X0189354Y0116585D01*
X0189414Y0118082D02*
X0189414Y0121585D01*
X0191166Y0121585D01*
X0191750Y0121001D01*
X0191750Y0119834D01*
X0191166Y0119250D01*
X0189414Y0119250D01*
X0188066Y0119250D02*
X0185731Y0121585D01*
X0184383Y0122753D02*
X0182048Y0122753D01*
X0182048Y0119250D01*
X0184383Y0119250D01*
X0185731Y0119250D02*
X0188066Y0121585D01*
X0183216Y0121001D02*
X0182048Y0121001D01*
X0182048Y0117753D02*
X0182048Y0114250D01*
X0182048Y0116001D02*
X0182632Y0116585D01*
X0183799Y0116585D01*
X0184383Y0116001D01*
X0184383Y0114250D01*
X0186315Y0114834D02*
X0186315Y0117169D01*
X0185731Y0116585D02*
X0186899Y0116585D01*
X0186315Y0114834D02*
X0186899Y0114250D01*
X0194325Y0114250D02*
X0194325Y0114834D01*
X0194909Y0114834D01*
X0194909Y0114250D01*
X0194325Y0114250D01*
X0194325Y0116001D02*
X0194325Y0116585D01*
X0194909Y0116585D01*
X0194909Y0116001D01*
X0194325Y0116001D01*
X0196167Y0114250D02*
X0198502Y0117753D01*
X0197304Y0119250D02*
X0197888Y0119834D01*
X0197888Y0121001D01*
X0197304Y0121585D01*
X0196137Y0121585D01*
X0195553Y0121001D01*
X0195553Y0119834D01*
X0196137Y0119250D01*
X0197304Y0119250D01*
X0199236Y0119834D02*
X0199236Y0121001D01*
X0199820Y0121585D01*
X0201571Y0121585D01*
X0201571Y0122753D02*
X0201571Y0119250D01*
X0199820Y0119250D01*
X0199236Y0119834D01*
X0202185Y0117753D02*
X0199850Y0114250D01*
X0203533Y0116001D02*
X0204701Y0116001D01*
X0204117Y0117169D02*
X0204701Y0117753D01*
X0204117Y0117169D02*
X0204117Y0114250D01*
X0205988Y0114250D02*
X0205988Y0116585D01*
X0205988Y0115418D02*
X0207156Y0116585D01*
X0207740Y0116585D01*
X0209058Y0116585D02*
X0209058Y0114834D01*
X0209642Y0114250D01*
X0211393Y0114250D01*
X0211393Y0113666D02*
X0210809Y0113082D01*
X0210225Y0113082D01*
X0211393Y0113666D02*
X0211393Y0116585D01*
X0212741Y0116001D02*
X0212741Y0114834D01*
X0213325Y0114250D01*
X0215076Y0114250D01*
X0216424Y0114834D02*
X0216424Y0116001D01*
X0217008Y0116585D01*
X0218175Y0116585D01*
X0218759Y0116001D01*
X0218759Y0114834D01*
X0218175Y0114250D01*
X0217008Y0114250D01*
X0216424Y0114834D01*
X0215076Y0116585D02*
X0213325Y0116585D01*
X0212741Y0116001D01*
X0210809Y0118082D02*
X0211393Y0118666D01*
X0211393Y0121585D01*
X0209642Y0121585D01*
X0209058Y0121001D01*
X0209058Y0119834D01*
X0209642Y0119250D01*
X0211393Y0119250D01*
X0210809Y0118082D02*
X0210225Y0118082D01*
X0207710Y0119250D02*
X0207710Y0121001D01*
X0207126Y0121585D01*
X0205375Y0121585D01*
X0205375Y0119250D01*
X0204087Y0119250D02*
X0202919Y0119250D01*
X0203503Y0119250D02*
X0203503Y0121585D01*
X0202919Y0121585D01*
X0203503Y0122753D02*
X0203503Y0123337D01*
X0194265Y0119250D02*
X0193097Y0119250D01*
X0193681Y0119250D02*
X0193681Y0122753D01*
X0193097Y0122753D01*
X0216424Y0122169D02*
X0216424Y0119834D01*
X0217008Y0119250D01*
X0218175Y0119250D01*
X0218759Y0119834D01*
X0220107Y0119834D02*
X0220691Y0120418D01*
X0222442Y0120418D01*
X0222442Y0121001D02*
X0222442Y0119250D01*
X0220691Y0119250D01*
X0220107Y0119834D01*
X0220691Y0121585D02*
X0221859Y0121585D01*
X0222442Y0121001D01*
X0223790Y0121585D02*
X0225542Y0121585D01*
X0226126Y0121001D01*
X0226126Y0119834D01*
X0225542Y0119250D01*
X0223790Y0119250D01*
X0223790Y0118082D02*
X0223790Y0121585D01*
X0226216Y0118337D02*
X0226216Y0117753D01*
X0226216Y0116585D02*
X0226216Y0114250D01*
X0225632Y0114250D02*
X0226800Y0114250D01*
X0228671Y0114834D02*
X0229255Y0114250D01*
X0228671Y0114834D02*
X0228671Y0117169D01*
X0228087Y0116585D02*
X0229255Y0116585D01*
X0230543Y0116001D02*
X0231127Y0116585D01*
X0232294Y0116585D01*
X0232878Y0116001D01*
X0232878Y0114250D01*
X0234226Y0114834D02*
X0234810Y0114250D01*
X0236561Y0114250D01*
X0236561Y0116585D01*
X0237909Y0116585D02*
X0239660Y0116585D01*
X0240244Y0116001D01*
X0240244Y0114834D01*
X0239660Y0114250D01*
X0237909Y0114250D01*
X0237909Y0117753D01*
X0238463Y0119250D02*
X0237879Y0119834D01*
X0237879Y0122169D01*
X0237295Y0121585D02*
X0238463Y0121585D01*
X0239751Y0121001D02*
X0239751Y0119834D01*
X0240334Y0119250D01*
X0241502Y0119250D01*
X0242086Y0119834D01*
X0242086Y0121001D01*
X0241502Y0121585D01*
X0240334Y0121585D01*
X0239751Y0121001D01*
X0243434Y0120418D02*
X0244601Y0121585D01*
X0245185Y0121585D01*
X0246503Y0121001D02*
X0247087Y0121585D01*
X0248838Y0121585D01*
X0248254Y0120418D02*
X0247087Y0120418D01*
X0246503Y0121001D01*
X0246503Y0119250D02*
X0248254Y0119250D01*
X0248838Y0119834D01*
X0248254Y0120418D01*
X0251908Y0117753D02*
X0249572Y0114250D01*
X0248224Y0114834D02*
X0248224Y0116001D01*
X0247641Y0116585D01*
X0246473Y0116585D01*
X0245889Y0116001D01*
X0245889Y0114834D01*
X0246473Y0114250D01*
X0247641Y0114250D01*
X0248224Y0114834D01*
X0244601Y0114250D02*
X0243434Y0114250D01*
X0244018Y0114250D02*
X0244018Y0116585D01*
X0243434Y0116585D01*
X0244018Y0117753D02*
X0244018Y0118337D01*
X0243434Y0119250D02*
X0243434Y0121585D01*
X0236007Y0119250D02*
X0234840Y0119250D01*
X0235424Y0119250D02*
X0235424Y0121585D01*
X0234840Y0121585D01*
X0235424Y0122753D02*
X0235424Y0123337D01*
X0233492Y0121585D02*
X0231740Y0121585D01*
X0231157Y0121001D01*
X0231157Y0119834D01*
X0231740Y0119250D01*
X0233492Y0119250D01*
X0234226Y0116585D02*
X0234226Y0114834D01*
X0230543Y0114250D02*
X0230543Y0117753D01*
X0229809Y0119250D02*
X0229809Y0121001D01*
X0229225Y0121585D01*
X0228057Y0121585D01*
X0228057Y0120418D02*
X0229809Y0120418D01*
X0229809Y0119250D02*
X0228057Y0119250D01*
X0227473Y0119834D01*
X0228057Y0120418D01*
X0226216Y0116585D02*
X0225632Y0116585D01*
X0224284Y0116585D02*
X0224284Y0113666D01*
X0223700Y0113082D01*
X0223116Y0113082D01*
X0222533Y0114250D02*
X0224284Y0114250D01*
X0222533Y0114250D02*
X0221949Y0114834D01*
X0221949Y0116001D01*
X0222533Y0116585D01*
X0224284Y0116585D01*
X0220691Y0114834D02*
X0220691Y0114250D01*
X0220107Y0114250D01*
X0220107Y0114834D01*
X0220691Y0114834D01*
X0218759Y0122169D02*
X0218175Y0122753D01*
X0217008Y0122753D01*
X0216424Y0122169D01*
X0241592Y0114834D02*
X0242176Y0114834D01*
X0242176Y0114250D01*
X0241592Y0114250D01*
X0241592Y0114834D01*
X0253255Y0114250D02*
X0255007Y0114250D01*
X0255591Y0114834D01*
X0255591Y0116001D01*
X0255007Y0116585D01*
X0253255Y0116585D01*
X0253255Y0113082D01*
X0256939Y0114834D02*
X0257522Y0114250D01*
X0258690Y0114250D01*
X0259274Y0114834D01*
X0259274Y0116001D01*
X0258690Y0116585D01*
X0257522Y0116585D01*
X0256939Y0116001D01*
X0256939Y0114834D01*
X0260622Y0114834D02*
X0260622Y0116001D01*
X0261206Y0116585D01*
X0262373Y0116585D01*
X0262957Y0116001D01*
X0262957Y0114834D01*
X0262373Y0114250D01*
X0261206Y0114250D01*
X0260622Y0114834D01*
X0264305Y0115418D02*
X0265473Y0116585D01*
X0266056Y0116585D01*
X0264305Y0116585D02*
X0264305Y0114250D01*
X0267374Y0114250D02*
X0269126Y0114250D01*
X0269709Y0114834D01*
X0269709Y0117169D01*
X0269126Y0117753D01*
X0267374Y0117753D01*
X0267374Y0114250D01*
X0271057Y0114834D02*
X0271057Y0116585D01*
X0271057Y0114834D02*
X0271641Y0114250D01*
X0273393Y0114250D01*
X0273393Y0116585D01*
X0274740Y0116585D02*
X0275324Y0116585D01*
X0275324Y0114250D01*
X0274740Y0114250D02*
X0275908Y0114250D01*
X0277196Y0114250D02*
X0277196Y0116585D01*
X0278947Y0116585D01*
X0279531Y0116001D01*
X0279531Y0114250D01*
X0280879Y0114834D02*
X0281463Y0114250D01*
X0282630Y0114250D01*
X0283214Y0114834D01*
X0283214Y0116001D01*
X0282630Y0116585D01*
X0281463Y0116585D01*
X0280879Y0116001D01*
X0280879Y0114834D01*
X0284562Y0114250D02*
X0286897Y0117753D01*
X0275324Y0117753D02*
X0275324Y0118337D01*
X0263571Y0119834D02*
X0262987Y0119250D01*
X0261236Y0119250D01*
X0261236Y0122753D01*
X0261236Y0121585D02*
X0262987Y0121585D01*
X0263571Y0121001D01*
X0263571Y0119834D01*
X0259888Y0120418D02*
X0258136Y0120418D01*
X0257552Y0119834D01*
X0258136Y0119250D01*
X0259888Y0119250D01*
X0259888Y0121001D01*
X0259304Y0121585D01*
X0258136Y0121585D01*
X0256205Y0119250D02*
X0253869Y0119250D01*
X0253869Y0122753D01*
X0267548Y0136918D02*
X0268716Y0135750D01*
X0269883Y0136918D01*
X0269883Y0139253D01*
X0271231Y0138085D02*
X0272399Y0139253D01*
X0272399Y0135750D01*
X0273566Y0135750D02*
X0271231Y0135750D01*
X0274914Y0135750D02*
X0276082Y0135750D01*
X0275498Y0135750D02*
X0275498Y0139253D01*
X0274914Y0139253D02*
X0276082Y0139253D01*
X0277370Y0138085D02*
X0278537Y0139253D01*
X0278537Y0135750D01*
X0277370Y0135750D02*
X0279705Y0135750D01*
X0267548Y0136918D02*
X0267548Y0139253D01*
X0322296Y0115925D02*
X0322296Y0113673D01*
X0326800Y0113673D01*
X0325299Y0113673D02*
X0325299Y0115925D01*
X0324548Y0116675D01*
X0323047Y0116675D01*
X0322296Y0115925D01*
X0323047Y0112071D02*
X0322296Y0111321D01*
X0322296Y0109820D01*
X0323047Y0109069D01*
X0323797Y0109069D01*
X0324548Y0109820D01*
X0324548Y0111321D01*
X0325299Y0112071D01*
X0326049Y0112071D01*
X0326800Y0111321D01*
X0326800Y0109820D01*
X0326049Y0109069D01*
X0326049Y0107468D02*
X0326800Y0106717D01*
X0326800Y0105216D01*
X0326049Y0104465D01*
X0323047Y0104465D01*
X0322296Y0105216D01*
X0322296Y0106717D01*
X0323047Y0107468D01*
X0322296Y0102897D02*
X0322296Y0101396D01*
X0322296Y0102146D02*
X0326800Y0102146D01*
X0326800Y0101396D02*
X0326800Y0102897D01*
X0118018Y0192126D02*
X0110735Y0192126D01*
X0110735Y0192913D01*
X0102861Y0192913D01*
X0102861Y0192126D01*
X0095578Y0192126D01*
X0095578Y0198031D01*
X0094593Y0198031D01*
X0094593Y0201969D01*
X0095578Y0201969D01*
X0095578Y0207874D01*
X0102861Y0207874D01*
X0102861Y0207087D01*
X0110735Y0207087D01*
X0110735Y0207874D01*
X0118018Y0207874D01*
X0118018Y0192126D01*
X0110735Y0192126D02*
X0110735Y0191339D01*
X0102861Y0191339D01*
X0102861Y0192126D01*
X0102074Y0200000D02*
X0102076Y0200137D01*
X0102082Y0200275D01*
X0102092Y0200412D01*
X0102106Y0200548D01*
X0102124Y0200685D01*
X0102146Y0200820D01*
X0102172Y0200955D01*
X0102201Y0201089D01*
X0102235Y0201223D01*
X0102272Y0201355D01*
X0102314Y0201486D01*
X0102359Y0201616D01*
X0102408Y0201744D01*
X0102460Y0201871D01*
X0102517Y0201996D01*
X0102576Y0202120D01*
X0102640Y0202242D01*
X0102707Y0202362D01*
X0102777Y0202480D01*
X0102851Y0202596D01*
X0102928Y0202710D01*
X0103009Y0202821D01*
X0103092Y0202930D01*
X0103179Y0203037D01*
X0103269Y0203140D01*
X0103362Y0203242D01*
X0103458Y0203340D01*
X0103556Y0203436D01*
X0103658Y0203529D01*
X0103761Y0203619D01*
X0103868Y0203706D01*
X0103977Y0203789D01*
X0104088Y0203870D01*
X0104202Y0203947D01*
X0104318Y0204021D01*
X0104436Y0204091D01*
X0104556Y0204158D01*
X0104678Y0204222D01*
X0104802Y0204281D01*
X0104927Y0204338D01*
X0105054Y0204390D01*
X0105182Y0204439D01*
X0105312Y0204484D01*
X0105443Y0204526D01*
X0105575Y0204563D01*
X0105709Y0204597D01*
X0105843Y0204626D01*
X0105978Y0204652D01*
X0106113Y0204674D01*
X0106250Y0204692D01*
X0106386Y0204706D01*
X0106523Y0204716D01*
X0106661Y0204722D01*
X0106798Y0204724D01*
X0106935Y0204722D01*
X0107073Y0204716D01*
X0107210Y0204706D01*
X0107346Y0204692D01*
X0107483Y0204674D01*
X0107618Y0204652D01*
X0107753Y0204626D01*
X0107887Y0204597D01*
X0108021Y0204563D01*
X0108153Y0204526D01*
X0108284Y0204484D01*
X0108414Y0204439D01*
X0108542Y0204390D01*
X0108669Y0204338D01*
X0108794Y0204281D01*
X0108918Y0204222D01*
X0109040Y0204158D01*
X0109160Y0204091D01*
X0109278Y0204021D01*
X0109394Y0203947D01*
X0109508Y0203870D01*
X0109619Y0203789D01*
X0109728Y0203706D01*
X0109835Y0203619D01*
X0109938Y0203529D01*
X0110040Y0203436D01*
X0110138Y0203340D01*
X0110234Y0203242D01*
X0110327Y0203140D01*
X0110417Y0203037D01*
X0110504Y0202930D01*
X0110587Y0202821D01*
X0110668Y0202710D01*
X0110745Y0202596D01*
X0110819Y0202480D01*
X0110889Y0202362D01*
X0110956Y0202242D01*
X0111020Y0202120D01*
X0111079Y0201996D01*
X0111136Y0201871D01*
X0111188Y0201744D01*
X0111237Y0201616D01*
X0111282Y0201486D01*
X0111324Y0201355D01*
X0111361Y0201223D01*
X0111395Y0201089D01*
X0111424Y0200955D01*
X0111450Y0200820D01*
X0111472Y0200685D01*
X0111490Y0200548D01*
X0111504Y0200412D01*
X0111514Y0200275D01*
X0111520Y0200137D01*
X0111522Y0200000D01*
X0111520Y0199863D01*
X0111514Y0199725D01*
X0111504Y0199588D01*
X0111490Y0199452D01*
X0111472Y0199315D01*
X0111450Y0199180D01*
X0111424Y0199045D01*
X0111395Y0198911D01*
X0111361Y0198777D01*
X0111324Y0198645D01*
X0111282Y0198514D01*
X0111237Y0198384D01*
X0111188Y0198256D01*
X0111136Y0198129D01*
X0111079Y0198004D01*
X0111020Y0197880D01*
X0110956Y0197758D01*
X0110889Y0197638D01*
X0110819Y0197520D01*
X0110745Y0197404D01*
X0110668Y0197290D01*
X0110587Y0197179D01*
X0110504Y0197070D01*
X0110417Y0196963D01*
X0110327Y0196860D01*
X0110234Y0196758D01*
X0110138Y0196660D01*
X0110040Y0196564D01*
X0109938Y0196471D01*
X0109835Y0196381D01*
X0109728Y0196294D01*
X0109619Y0196211D01*
X0109508Y0196130D01*
X0109394Y0196053D01*
X0109278Y0195979D01*
X0109160Y0195909D01*
X0109040Y0195842D01*
X0108918Y0195778D01*
X0108794Y0195719D01*
X0108669Y0195662D01*
X0108542Y0195610D01*
X0108414Y0195561D01*
X0108284Y0195516D01*
X0108153Y0195474D01*
X0108021Y0195437D01*
X0107887Y0195403D01*
X0107753Y0195374D01*
X0107618Y0195348D01*
X0107483Y0195326D01*
X0107346Y0195308D01*
X0107210Y0195294D01*
X0107073Y0195284D01*
X0106935Y0195278D01*
X0106798Y0195276D01*
X0106661Y0195278D01*
X0106523Y0195284D01*
X0106386Y0195294D01*
X0106250Y0195308D01*
X0106113Y0195326D01*
X0105978Y0195348D01*
X0105843Y0195374D01*
X0105709Y0195403D01*
X0105575Y0195437D01*
X0105443Y0195474D01*
X0105312Y0195516D01*
X0105182Y0195561D01*
X0105054Y0195610D01*
X0104927Y0195662D01*
X0104802Y0195719D01*
X0104678Y0195778D01*
X0104556Y0195842D01*
X0104436Y0195909D01*
X0104318Y0195979D01*
X0104202Y0196053D01*
X0104088Y0196130D01*
X0103977Y0196211D01*
X0103868Y0196294D01*
X0103761Y0196381D01*
X0103658Y0196471D01*
X0103556Y0196564D01*
X0103458Y0196660D01*
X0103362Y0196758D01*
X0103269Y0196860D01*
X0103179Y0196963D01*
X0103092Y0197070D01*
X0103009Y0197179D01*
X0102928Y0197290D01*
X0102851Y0197404D01*
X0102777Y0197520D01*
X0102707Y0197638D01*
X0102640Y0197758D01*
X0102576Y0197880D01*
X0102517Y0198004D01*
X0102460Y0198129D01*
X0102408Y0198256D01*
X0102359Y0198384D01*
X0102314Y0198514D01*
X0102272Y0198645D01*
X0102235Y0198777D01*
X0102201Y0198911D01*
X0102172Y0199045D01*
X0102146Y0199180D01*
X0102124Y0199315D01*
X0102106Y0199452D01*
X0102092Y0199588D01*
X0102082Y0199725D01*
X0102076Y0199863D01*
X0102074Y0200000D01*
X0100892Y0200000D02*
X0100894Y0200153D01*
X0100900Y0200307D01*
X0100910Y0200460D01*
X0100924Y0200612D01*
X0100942Y0200765D01*
X0100964Y0200916D01*
X0100989Y0201067D01*
X0101019Y0201218D01*
X0101053Y0201368D01*
X0101090Y0201516D01*
X0101131Y0201664D01*
X0101176Y0201810D01*
X0101225Y0201956D01*
X0101278Y0202100D01*
X0101334Y0202242D01*
X0101394Y0202383D01*
X0101458Y0202523D01*
X0101525Y0202661D01*
X0101596Y0202797D01*
X0101671Y0202931D01*
X0101748Y0203063D01*
X0101830Y0203193D01*
X0101914Y0203321D01*
X0102002Y0203447D01*
X0102093Y0203570D01*
X0102187Y0203691D01*
X0102285Y0203809D01*
X0102385Y0203925D01*
X0102489Y0204038D01*
X0102595Y0204149D01*
X0102704Y0204257D01*
X0102816Y0204362D01*
X0102930Y0204463D01*
X0103048Y0204562D01*
X0103167Y0204658D01*
X0103289Y0204751D01*
X0103414Y0204840D01*
X0103541Y0204927D01*
X0103670Y0205009D01*
X0103801Y0205089D01*
X0103934Y0205165D01*
X0104069Y0205238D01*
X0104206Y0205307D01*
X0104345Y0205372D01*
X0104485Y0205434D01*
X0104627Y0205492D01*
X0104770Y0205547D01*
X0104915Y0205598D01*
X0105061Y0205645D01*
X0105208Y0205688D01*
X0105356Y0205727D01*
X0105505Y0205763D01*
X0105655Y0205794D01*
X0105806Y0205822D01*
X0105957Y0205846D01*
X0106110Y0205866D01*
X0106262Y0205882D01*
X0106415Y0205894D01*
X0106568Y0205902D01*
X0106721Y0205906D01*
X0106875Y0205906D01*
X0107028Y0205902D01*
X0107181Y0205894D01*
X0107334Y0205882D01*
X0107486Y0205866D01*
X0107639Y0205846D01*
X0107790Y0205822D01*
X0107941Y0205794D01*
X0108091Y0205763D01*
X0108240Y0205727D01*
X0108388Y0205688D01*
X0108535Y0205645D01*
X0108681Y0205598D01*
X0108826Y0205547D01*
X0108969Y0205492D01*
X0109111Y0205434D01*
X0109251Y0205372D01*
X0109390Y0205307D01*
X0109527Y0205238D01*
X0109662Y0205165D01*
X0109795Y0205089D01*
X0109926Y0205009D01*
X0110055Y0204927D01*
X0110182Y0204840D01*
X0110307Y0204751D01*
X0110429Y0204658D01*
X0110548Y0204562D01*
X0110666Y0204463D01*
X0110780Y0204362D01*
X0110892Y0204257D01*
X0111001Y0204149D01*
X0111107Y0204038D01*
X0111211Y0203925D01*
X0111311Y0203809D01*
X0111409Y0203691D01*
X0111503Y0203570D01*
X0111594Y0203447D01*
X0111682Y0203321D01*
X0111766Y0203193D01*
X0111848Y0203063D01*
X0111925Y0202931D01*
X0112000Y0202797D01*
X0112071Y0202661D01*
X0112138Y0202523D01*
X0112202Y0202383D01*
X0112262Y0202242D01*
X0112318Y0202100D01*
X0112371Y0201956D01*
X0112420Y0201810D01*
X0112465Y0201664D01*
X0112506Y0201516D01*
X0112543Y0201368D01*
X0112577Y0201218D01*
X0112607Y0201067D01*
X0112632Y0200916D01*
X0112654Y0200765D01*
X0112672Y0200612D01*
X0112686Y0200460D01*
X0112696Y0200307D01*
X0112702Y0200153D01*
X0112704Y0200000D01*
X0112702Y0199847D01*
X0112696Y0199693D01*
X0112686Y0199540D01*
X0112672Y0199388D01*
X0112654Y0199235D01*
X0112632Y0199084D01*
X0112607Y0198933D01*
X0112577Y0198782D01*
X0112543Y0198632D01*
X0112506Y0198484D01*
X0112465Y0198336D01*
X0112420Y0198190D01*
X0112371Y0198044D01*
X0112318Y0197900D01*
X0112262Y0197758D01*
X0112202Y0197617D01*
X0112138Y0197477D01*
X0112071Y0197339D01*
X0112000Y0197203D01*
X0111925Y0197069D01*
X0111848Y0196937D01*
X0111766Y0196807D01*
X0111682Y0196679D01*
X0111594Y0196553D01*
X0111503Y0196430D01*
X0111409Y0196309D01*
X0111311Y0196191D01*
X0111211Y0196075D01*
X0111107Y0195962D01*
X0111001Y0195851D01*
X0110892Y0195743D01*
X0110780Y0195638D01*
X0110666Y0195537D01*
X0110548Y0195438D01*
X0110429Y0195342D01*
X0110307Y0195249D01*
X0110182Y0195160D01*
X0110055Y0195073D01*
X0109926Y0194991D01*
X0109795Y0194911D01*
X0109662Y0194835D01*
X0109527Y0194762D01*
X0109390Y0194693D01*
X0109251Y0194628D01*
X0109111Y0194566D01*
X0108969Y0194508D01*
X0108826Y0194453D01*
X0108681Y0194402D01*
X0108535Y0194355D01*
X0108388Y0194312D01*
X0108240Y0194273D01*
X0108091Y0194237D01*
X0107941Y0194206D01*
X0107790Y0194178D01*
X0107639Y0194154D01*
X0107486Y0194134D01*
X0107334Y0194118D01*
X0107181Y0194106D01*
X0107028Y0194098D01*
X0106875Y0194094D01*
X0106721Y0194094D01*
X0106568Y0194098D01*
X0106415Y0194106D01*
X0106262Y0194118D01*
X0106110Y0194134D01*
X0105957Y0194154D01*
X0105806Y0194178D01*
X0105655Y0194206D01*
X0105505Y0194237D01*
X0105356Y0194273D01*
X0105208Y0194312D01*
X0105061Y0194355D01*
X0104915Y0194402D01*
X0104770Y0194453D01*
X0104627Y0194508D01*
X0104485Y0194566D01*
X0104345Y0194628D01*
X0104206Y0194693D01*
X0104069Y0194762D01*
X0103934Y0194835D01*
X0103801Y0194911D01*
X0103670Y0194991D01*
X0103541Y0195073D01*
X0103414Y0195160D01*
X0103289Y0195249D01*
X0103167Y0195342D01*
X0103048Y0195438D01*
X0102930Y0195537D01*
X0102816Y0195638D01*
X0102704Y0195743D01*
X0102595Y0195851D01*
X0102489Y0195962D01*
X0102385Y0196075D01*
X0102285Y0196191D01*
X0102187Y0196309D01*
X0102093Y0196430D01*
X0102002Y0196553D01*
X0101914Y0196679D01*
X0101830Y0196807D01*
X0101748Y0196937D01*
X0101671Y0197069D01*
X0101596Y0197203D01*
X0101525Y0197339D01*
X0101458Y0197477D01*
X0101394Y0197617D01*
X0101334Y0197758D01*
X0101278Y0197900D01*
X0101225Y0198044D01*
X0101176Y0198190D01*
X0101131Y0198336D01*
X0101090Y0198484D01*
X0101053Y0198632D01*
X0101019Y0198782D01*
X0100989Y0198933D01*
X0100964Y0199084D01*
X0100942Y0199235D01*
X0100924Y0199388D01*
X0100910Y0199540D01*
X0100900Y0199693D01*
X0100894Y0199847D01*
X0100892Y0200000D01*
X0102861Y0207874D02*
X0102861Y0208661D01*
X0110735Y0208661D01*
X0110735Y0207874D01*
D17*
X0135499Y0205500D02*
X0135501Y0205658D01*
X0135507Y0205816D01*
X0135517Y0205974D01*
X0135531Y0206132D01*
X0135549Y0206289D01*
X0135570Y0206446D01*
X0135596Y0206602D01*
X0135626Y0206758D01*
X0135659Y0206913D01*
X0135697Y0207066D01*
X0135738Y0207219D01*
X0135783Y0207371D01*
X0135832Y0207522D01*
X0135885Y0207671D01*
X0135941Y0207819D01*
X0136001Y0207965D01*
X0136065Y0208110D01*
X0136133Y0208253D01*
X0136204Y0208395D01*
X0136278Y0208535D01*
X0136356Y0208672D01*
X0136438Y0208808D01*
X0136522Y0208942D01*
X0136611Y0209073D01*
X0136702Y0209202D01*
X0136797Y0209329D01*
X0136894Y0209454D01*
X0136995Y0209576D01*
X0137099Y0209695D01*
X0137206Y0209812D01*
X0137316Y0209926D01*
X0137429Y0210037D01*
X0137544Y0210146D01*
X0137662Y0210251D01*
X0137783Y0210353D01*
X0137906Y0210453D01*
X0138032Y0210549D01*
X0138160Y0210642D01*
X0138290Y0210732D01*
X0138423Y0210818D01*
X0138558Y0210902D01*
X0138694Y0210981D01*
X0138833Y0211058D01*
X0138974Y0211130D01*
X0139116Y0211200D01*
X0139260Y0211265D01*
X0139406Y0211327D01*
X0139553Y0211385D01*
X0139702Y0211440D01*
X0139852Y0211491D01*
X0140003Y0211538D01*
X0140155Y0211581D01*
X0140308Y0211620D01*
X0140463Y0211656D01*
X0140618Y0211687D01*
X0140774Y0211715D01*
X0140930Y0211739D01*
X0141087Y0211759D01*
X0141245Y0211775D01*
X0141402Y0211787D01*
X0141561Y0211795D01*
X0141719Y0211799D01*
X0141877Y0211799D01*
X0142035Y0211795D01*
X0142194Y0211787D01*
X0142351Y0211775D01*
X0142509Y0211759D01*
X0142666Y0211739D01*
X0142822Y0211715D01*
X0142978Y0211687D01*
X0143133Y0211656D01*
X0143288Y0211620D01*
X0143441Y0211581D01*
X0143593Y0211538D01*
X0143744Y0211491D01*
X0143894Y0211440D01*
X0144043Y0211385D01*
X0144190Y0211327D01*
X0144336Y0211265D01*
X0144480Y0211200D01*
X0144622Y0211130D01*
X0144763Y0211058D01*
X0144902Y0210981D01*
X0145038Y0210902D01*
X0145173Y0210818D01*
X0145306Y0210732D01*
X0145436Y0210642D01*
X0145564Y0210549D01*
X0145690Y0210453D01*
X0145813Y0210353D01*
X0145934Y0210251D01*
X0146052Y0210146D01*
X0146167Y0210037D01*
X0146280Y0209926D01*
X0146390Y0209812D01*
X0146497Y0209695D01*
X0146601Y0209576D01*
X0146702Y0209454D01*
X0146799Y0209329D01*
X0146894Y0209202D01*
X0146985Y0209073D01*
X0147074Y0208942D01*
X0147158Y0208808D01*
X0147240Y0208672D01*
X0147318Y0208535D01*
X0147392Y0208395D01*
X0147463Y0208253D01*
X0147531Y0208110D01*
X0147595Y0207965D01*
X0147655Y0207819D01*
X0147711Y0207671D01*
X0147764Y0207522D01*
X0147813Y0207371D01*
X0147858Y0207219D01*
X0147899Y0207066D01*
X0147937Y0206913D01*
X0147970Y0206758D01*
X0148000Y0206602D01*
X0148026Y0206446D01*
X0148047Y0206289D01*
X0148065Y0206132D01*
X0148079Y0205974D01*
X0148089Y0205816D01*
X0148095Y0205658D01*
X0148097Y0205500D01*
X0148095Y0205342D01*
X0148089Y0205184D01*
X0148079Y0205026D01*
X0148065Y0204868D01*
X0148047Y0204711D01*
X0148026Y0204554D01*
X0148000Y0204398D01*
X0147970Y0204242D01*
X0147937Y0204087D01*
X0147899Y0203934D01*
X0147858Y0203781D01*
X0147813Y0203629D01*
X0147764Y0203478D01*
X0147711Y0203329D01*
X0147655Y0203181D01*
X0147595Y0203035D01*
X0147531Y0202890D01*
X0147463Y0202747D01*
X0147392Y0202605D01*
X0147318Y0202465D01*
X0147240Y0202328D01*
X0147158Y0202192D01*
X0147074Y0202058D01*
X0146985Y0201927D01*
X0146894Y0201798D01*
X0146799Y0201671D01*
X0146702Y0201546D01*
X0146601Y0201424D01*
X0146497Y0201305D01*
X0146390Y0201188D01*
X0146280Y0201074D01*
X0146167Y0200963D01*
X0146052Y0200854D01*
X0145934Y0200749D01*
X0145813Y0200647D01*
X0145690Y0200547D01*
X0145564Y0200451D01*
X0145436Y0200358D01*
X0145306Y0200268D01*
X0145173Y0200182D01*
X0145038Y0200098D01*
X0144902Y0200019D01*
X0144763Y0199942D01*
X0144622Y0199870D01*
X0144480Y0199800D01*
X0144336Y0199735D01*
X0144190Y0199673D01*
X0144043Y0199615D01*
X0143894Y0199560D01*
X0143744Y0199509D01*
X0143593Y0199462D01*
X0143441Y0199419D01*
X0143288Y0199380D01*
X0143133Y0199344D01*
X0142978Y0199313D01*
X0142822Y0199285D01*
X0142666Y0199261D01*
X0142509Y0199241D01*
X0142351Y0199225D01*
X0142194Y0199213D01*
X0142035Y0199205D01*
X0141877Y0199201D01*
X0141719Y0199201D01*
X0141561Y0199205D01*
X0141402Y0199213D01*
X0141245Y0199225D01*
X0141087Y0199241D01*
X0140930Y0199261D01*
X0140774Y0199285D01*
X0140618Y0199313D01*
X0140463Y0199344D01*
X0140308Y0199380D01*
X0140155Y0199419D01*
X0140003Y0199462D01*
X0139852Y0199509D01*
X0139702Y0199560D01*
X0139553Y0199615D01*
X0139406Y0199673D01*
X0139260Y0199735D01*
X0139116Y0199800D01*
X0138974Y0199870D01*
X0138833Y0199942D01*
X0138694Y0200019D01*
X0138558Y0200098D01*
X0138423Y0200182D01*
X0138290Y0200268D01*
X0138160Y0200358D01*
X0138032Y0200451D01*
X0137906Y0200547D01*
X0137783Y0200647D01*
X0137662Y0200749D01*
X0137544Y0200854D01*
X0137429Y0200963D01*
X0137316Y0201074D01*
X0137206Y0201188D01*
X0137099Y0201305D01*
X0136995Y0201424D01*
X0136894Y0201546D01*
X0136797Y0201671D01*
X0136702Y0201798D01*
X0136611Y0201927D01*
X0136522Y0202058D01*
X0136438Y0202192D01*
X0136356Y0202328D01*
X0136278Y0202465D01*
X0136204Y0202605D01*
X0136133Y0202747D01*
X0136065Y0202890D01*
X0136001Y0203035D01*
X0135941Y0203181D01*
X0135885Y0203329D01*
X0135832Y0203478D01*
X0135783Y0203629D01*
X0135738Y0203781D01*
X0135697Y0203934D01*
X0135659Y0204087D01*
X0135626Y0204242D01*
X0135596Y0204398D01*
X0135570Y0204554D01*
X0135549Y0204711D01*
X0135531Y0204868D01*
X0135517Y0205026D01*
X0135507Y0205184D01*
X0135501Y0205342D01*
X0135499Y0205500D01*
X0335499Y0145500D02*
X0335501Y0145658D01*
X0335507Y0145816D01*
X0335517Y0145974D01*
X0335531Y0146132D01*
X0335549Y0146289D01*
X0335570Y0146446D01*
X0335596Y0146602D01*
X0335626Y0146758D01*
X0335659Y0146913D01*
X0335697Y0147066D01*
X0335738Y0147219D01*
X0335783Y0147371D01*
X0335832Y0147522D01*
X0335885Y0147671D01*
X0335941Y0147819D01*
X0336001Y0147965D01*
X0336065Y0148110D01*
X0336133Y0148253D01*
X0336204Y0148395D01*
X0336278Y0148535D01*
X0336356Y0148672D01*
X0336438Y0148808D01*
X0336522Y0148942D01*
X0336611Y0149073D01*
X0336702Y0149202D01*
X0336797Y0149329D01*
X0336894Y0149454D01*
X0336995Y0149576D01*
X0337099Y0149695D01*
X0337206Y0149812D01*
X0337316Y0149926D01*
X0337429Y0150037D01*
X0337544Y0150146D01*
X0337662Y0150251D01*
X0337783Y0150353D01*
X0337906Y0150453D01*
X0338032Y0150549D01*
X0338160Y0150642D01*
X0338290Y0150732D01*
X0338423Y0150818D01*
X0338558Y0150902D01*
X0338694Y0150981D01*
X0338833Y0151058D01*
X0338974Y0151130D01*
X0339116Y0151200D01*
X0339260Y0151265D01*
X0339406Y0151327D01*
X0339553Y0151385D01*
X0339702Y0151440D01*
X0339852Y0151491D01*
X0340003Y0151538D01*
X0340155Y0151581D01*
X0340308Y0151620D01*
X0340463Y0151656D01*
X0340618Y0151687D01*
X0340774Y0151715D01*
X0340930Y0151739D01*
X0341087Y0151759D01*
X0341245Y0151775D01*
X0341402Y0151787D01*
X0341561Y0151795D01*
X0341719Y0151799D01*
X0341877Y0151799D01*
X0342035Y0151795D01*
X0342194Y0151787D01*
X0342351Y0151775D01*
X0342509Y0151759D01*
X0342666Y0151739D01*
X0342822Y0151715D01*
X0342978Y0151687D01*
X0343133Y0151656D01*
X0343288Y0151620D01*
X0343441Y0151581D01*
X0343593Y0151538D01*
X0343744Y0151491D01*
X0343894Y0151440D01*
X0344043Y0151385D01*
X0344190Y0151327D01*
X0344336Y0151265D01*
X0344480Y0151200D01*
X0344622Y0151130D01*
X0344763Y0151058D01*
X0344902Y0150981D01*
X0345038Y0150902D01*
X0345173Y0150818D01*
X0345306Y0150732D01*
X0345436Y0150642D01*
X0345564Y0150549D01*
X0345690Y0150453D01*
X0345813Y0150353D01*
X0345934Y0150251D01*
X0346052Y0150146D01*
X0346167Y0150037D01*
X0346280Y0149926D01*
X0346390Y0149812D01*
X0346497Y0149695D01*
X0346601Y0149576D01*
X0346702Y0149454D01*
X0346799Y0149329D01*
X0346894Y0149202D01*
X0346985Y0149073D01*
X0347074Y0148942D01*
X0347158Y0148808D01*
X0347240Y0148672D01*
X0347318Y0148535D01*
X0347392Y0148395D01*
X0347463Y0148253D01*
X0347531Y0148110D01*
X0347595Y0147965D01*
X0347655Y0147819D01*
X0347711Y0147671D01*
X0347764Y0147522D01*
X0347813Y0147371D01*
X0347858Y0147219D01*
X0347899Y0147066D01*
X0347937Y0146913D01*
X0347970Y0146758D01*
X0348000Y0146602D01*
X0348026Y0146446D01*
X0348047Y0146289D01*
X0348065Y0146132D01*
X0348079Y0145974D01*
X0348089Y0145816D01*
X0348095Y0145658D01*
X0348097Y0145500D01*
X0348095Y0145342D01*
X0348089Y0145184D01*
X0348079Y0145026D01*
X0348065Y0144868D01*
X0348047Y0144711D01*
X0348026Y0144554D01*
X0348000Y0144398D01*
X0347970Y0144242D01*
X0347937Y0144087D01*
X0347899Y0143934D01*
X0347858Y0143781D01*
X0347813Y0143629D01*
X0347764Y0143478D01*
X0347711Y0143329D01*
X0347655Y0143181D01*
X0347595Y0143035D01*
X0347531Y0142890D01*
X0347463Y0142747D01*
X0347392Y0142605D01*
X0347318Y0142465D01*
X0347240Y0142328D01*
X0347158Y0142192D01*
X0347074Y0142058D01*
X0346985Y0141927D01*
X0346894Y0141798D01*
X0346799Y0141671D01*
X0346702Y0141546D01*
X0346601Y0141424D01*
X0346497Y0141305D01*
X0346390Y0141188D01*
X0346280Y0141074D01*
X0346167Y0140963D01*
X0346052Y0140854D01*
X0345934Y0140749D01*
X0345813Y0140647D01*
X0345690Y0140547D01*
X0345564Y0140451D01*
X0345436Y0140358D01*
X0345306Y0140268D01*
X0345173Y0140182D01*
X0345038Y0140098D01*
X0344902Y0140019D01*
X0344763Y0139942D01*
X0344622Y0139870D01*
X0344480Y0139800D01*
X0344336Y0139735D01*
X0344190Y0139673D01*
X0344043Y0139615D01*
X0343894Y0139560D01*
X0343744Y0139509D01*
X0343593Y0139462D01*
X0343441Y0139419D01*
X0343288Y0139380D01*
X0343133Y0139344D01*
X0342978Y0139313D01*
X0342822Y0139285D01*
X0342666Y0139261D01*
X0342509Y0139241D01*
X0342351Y0139225D01*
X0342194Y0139213D01*
X0342035Y0139205D01*
X0341877Y0139201D01*
X0341719Y0139201D01*
X0341561Y0139205D01*
X0341402Y0139213D01*
X0341245Y0139225D01*
X0341087Y0139241D01*
X0340930Y0139261D01*
X0340774Y0139285D01*
X0340618Y0139313D01*
X0340463Y0139344D01*
X0340308Y0139380D01*
X0340155Y0139419D01*
X0340003Y0139462D01*
X0339852Y0139509D01*
X0339702Y0139560D01*
X0339553Y0139615D01*
X0339406Y0139673D01*
X0339260Y0139735D01*
X0339116Y0139800D01*
X0338974Y0139870D01*
X0338833Y0139942D01*
X0338694Y0140019D01*
X0338558Y0140098D01*
X0338423Y0140182D01*
X0338290Y0140268D01*
X0338160Y0140358D01*
X0338032Y0140451D01*
X0337906Y0140547D01*
X0337783Y0140647D01*
X0337662Y0140749D01*
X0337544Y0140854D01*
X0337429Y0140963D01*
X0337316Y0141074D01*
X0337206Y0141188D01*
X0337099Y0141305D01*
X0336995Y0141424D01*
X0336894Y0141546D01*
X0336797Y0141671D01*
X0336702Y0141798D01*
X0336611Y0141927D01*
X0336522Y0142058D01*
X0336438Y0142192D01*
X0336356Y0142328D01*
X0336278Y0142465D01*
X0336204Y0142605D01*
X0336133Y0142747D01*
X0336065Y0142890D01*
X0336001Y0143035D01*
X0335941Y0143181D01*
X0335885Y0143329D01*
X0335832Y0143478D01*
X0335783Y0143629D01*
X0335738Y0143781D01*
X0335697Y0143934D01*
X0335659Y0144087D01*
X0335626Y0144242D01*
X0335596Y0144398D01*
X0335570Y0144554D01*
X0335549Y0144711D01*
X0335531Y0144868D01*
X0335517Y0145026D01*
X0335507Y0145184D01*
X0335501Y0145342D01*
X0335499Y0145500D01*
X0335499Y0035500D02*
X0335501Y0035658D01*
X0335507Y0035816D01*
X0335517Y0035974D01*
X0335531Y0036132D01*
X0335549Y0036289D01*
X0335570Y0036446D01*
X0335596Y0036602D01*
X0335626Y0036758D01*
X0335659Y0036913D01*
X0335697Y0037066D01*
X0335738Y0037219D01*
X0335783Y0037371D01*
X0335832Y0037522D01*
X0335885Y0037671D01*
X0335941Y0037819D01*
X0336001Y0037965D01*
X0336065Y0038110D01*
X0336133Y0038253D01*
X0336204Y0038395D01*
X0336278Y0038535D01*
X0336356Y0038672D01*
X0336438Y0038808D01*
X0336522Y0038942D01*
X0336611Y0039073D01*
X0336702Y0039202D01*
X0336797Y0039329D01*
X0336894Y0039454D01*
X0336995Y0039576D01*
X0337099Y0039695D01*
X0337206Y0039812D01*
X0337316Y0039926D01*
X0337429Y0040037D01*
X0337544Y0040146D01*
X0337662Y0040251D01*
X0337783Y0040353D01*
X0337906Y0040453D01*
X0338032Y0040549D01*
X0338160Y0040642D01*
X0338290Y0040732D01*
X0338423Y0040818D01*
X0338558Y0040902D01*
X0338694Y0040981D01*
X0338833Y0041058D01*
X0338974Y0041130D01*
X0339116Y0041200D01*
X0339260Y0041265D01*
X0339406Y0041327D01*
X0339553Y0041385D01*
X0339702Y0041440D01*
X0339852Y0041491D01*
X0340003Y0041538D01*
X0340155Y0041581D01*
X0340308Y0041620D01*
X0340463Y0041656D01*
X0340618Y0041687D01*
X0340774Y0041715D01*
X0340930Y0041739D01*
X0341087Y0041759D01*
X0341245Y0041775D01*
X0341402Y0041787D01*
X0341561Y0041795D01*
X0341719Y0041799D01*
X0341877Y0041799D01*
X0342035Y0041795D01*
X0342194Y0041787D01*
X0342351Y0041775D01*
X0342509Y0041759D01*
X0342666Y0041739D01*
X0342822Y0041715D01*
X0342978Y0041687D01*
X0343133Y0041656D01*
X0343288Y0041620D01*
X0343441Y0041581D01*
X0343593Y0041538D01*
X0343744Y0041491D01*
X0343894Y0041440D01*
X0344043Y0041385D01*
X0344190Y0041327D01*
X0344336Y0041265D01*
X0344480Y0041200D01*
X0344622Y0041130D01*
X0344763Y0041058D01*
X0344902Y0040981D01*
X0345038Y0040902D01*
X0345173Y0040818D01*
X0345306Y0040732D01*
X0345436Y0040642D01*
X0345564Y0040549D01*
X0345690Y0040453D01*
X0345813Y0040353D01*
X0345934Y0040251D01*
X0346052Y0040146D01*
X0346167Y0040037D01*
X0346280Y0039926D01*
X0346390Y0039812D01*
X0346497Y0039695D01*
X0346601Y0039576D01*
X0346702Y0039454D01*
X0346799Y0039329D01*
X0346894Y0039202D01*
X0346985Y0039073D01*
X0347074Y0038942D01*
X0347158Y0038808D01*
X0347240Y0038672D01*
X0347318Y0038535D01*
X0347392Y0038395D01*
X0347463Y0038253D01*
X0347531Y0038110D01*
X0347595Y0037965D01*
X0347655Y0037819D01*
X0347711Y0037671D01*
X0347764Y0037522D01*
X0347813Y0037371D01*
X0347858Y0037219D01*
X0347899Y0037066D01*
X0347937Y0036913D01*
X0347970Y0036758D01*
X0348000Y0036602D01*
X0348026Y0036446D01*
X0348047Y0036289D01*
X0348065Y0036132D01*
X0348079Y0035974D01*
X0348089Y0035816D01*
X0348095Y0035658D01*
X0348097Y0035500D01*
X0348095Y0035342D01*
X0348089Y0035184D01*
X0348079Y0035026D01*
X0348065Y0034868D01*
X0348047Y0034711D01*
X0348026Y0034554D01*
X0348000Y0034398D01*
X0347970Y0034242D01*
X0347937Y0034087D01*
X0347899Y0033934D01*
X0347858Y0033781D01*
X0347813Y0033629D01*
X0347764Y0033478D01*
X0347711Y0033329D01*
X0347655Y0033181D01*
X0347595Y0033035D01*
X0347531Y0032890D01*
X0347463Y0032747D01*
X0347392Y0032605D01*
X0347318Y0032465D01*
X0347240Y0032328D01*
X0347158Y0032192D01*
X0347074Y0032058D01*
X0346985Y0031927D01*
X0346894Y0031798D01*
X0346799Y0031671D01*
X0346702Y0031546D01*
X0346601Y0031424D01*
X0346497Y0031305D01*
X0346390Y0031188D01*
X0346280Y0031074D01*
X0346167Y0030963D01*
X0346052Y0030854D01*
X0345934Y0030749D01*
X0345813Y0030647D01*
X0345690Y0030547D01*
X0345564Y0030451D01*
X0345436Y0030358D01*
X0345306Y0030268D01*
X0345173Y0030182D01*
X0345038Y0030098D01*
X0344902Y0030019D01*
X0344763Y0029942D01*
X0344622Y0029870D01*
X0344480Y0029800D01*
X0344336Y0029735D01*
X0344190Y0029673D01*
X0344043Y0029615D01*
X0343894Y0029560D01*
X0343744Y0029509D01*
X0343593Y0029462D01*
X0343441Y0029419D01*
X0343288Y0029380D01*
X0343133Y0029344D01*
X0342978Y0029313D01*
X0342822Y0029285D01*
X0342666Y0029261D01*
X0342509Y0029241D01*
X0342351Y0029225D01*
X0342194Y0029213D01*
X0342035Y0029205D01*
X0341877Y0029201D01*
X0341719Y0029201D01*
X0341561Y0029205D01*
X0341402Y0029213D01*
X0341245Y0029225D01*
X0341087Y0029241D01*
X0340930Y0029261D01*
X0340774Y0029285D01*
X0340618Y0029313D01*
X0340463Y0029344D01*
X0340308Y0029380D01*
X0340155Y0029419D01*
X0340003Y0029462D01*
X0339852Y0029509D01*
X0339702Y0029560D01*
X0339553Y0029615D01*
X0339406Y0029673D01*
X0339260Y0029735D01*
X0339116Y0029800D01*
X0338974Y0029870D01*
X0338833Y0029942D01*
X0338694Y0030019D01*
X0338558Y0030098D01*
X0338423Y0030182D01*
X0338290Y0030268D01*
X0338160Y0030358D01*
X0338032Y0030451D01*
X0337906Y0030547D01*
X0337783Y0030647D01*
X0337662Y0030749D01*
X0337544Y0030854D01*
X0337429Y0030963D01*
X0337316Y0031074D01*
X0337206Y0031188D01*
X0337099Y0031305D01*
X0336995Y0031424D01*
X0336894Y0031546D01*
X0336797Y0031671D01*
X0336702Y0031798D01*
X0336611Y0031927D01*
X0336522Y0032058D01*
X0336438Y0032192D01*
X0336356Y0032328D01*
X0336278Y0032465D01*
X0336204Y0032605D01*
X0336133Y0032747D01*
X0336065Y0032890D01*
X0336001Y0033035D01*
X0335941Y0033181D01*
X0335885Y0033329D01*
X0335832Y0033478D01*
X0335783Y0033629D01*
X0335738Y0033781D01*
X0335697Y0033934D01*
X0335659Y0034087D01*
X0335626Y0034242D01*
X0335596Y0034398D01*
X0335570Y0034554D01*
X0335549Y0034711D01*
X0335531Y0034868D01*
X0335517Y0035026D01*
X0335507Y0035184D01*
X0335501Y0035342D01*
X0335499Y0035500D01*
X0130499Y0015500D02*
X0130501Y0015658D01*
X0130507Y0015816D01*
X0130517Y0015974D01*
X0130531Y0016132D01*
X0130549Y0016289D01*
X0130570Y0016446D01*
X0130596Y0016602D01*
X0130626Y0016758D01*
X0130659Y0016913D01*
X0130697Y0017066D01*
X0130738Y0017219D01*
X0130783Y0017371D01*
X0130832Y0017522D01*
X0130885Y0017671D01*
X0130941Y0017819D01*
X0131001Y0017965D01*
X0131065Y0018110D01*
X0131133Y0018253D01*
X0131204Y0018395D01*
X0131278Y0018535D01*
X0131356Y0018672D01*
X0131438Y0018808D01*
X0131522Y0018942D01*
X0131611Y0019073D01*
X0131702Y0019202D01*
X0131797Y0019329D01*
X0131894Y0019454D01*
X0131995Y0019576D01*
X0132099Y0019695D01*
X0132206Y0019812D01*
X0132316Y0019926D01*
X0132429Y0020037D01*
X0132544Y0020146D01*
X0132662Y0020251D01*
X0132783Y0020353D01*
X0132906Y0020453D01*
X0133032Y0020549D01*
X0133160Y0020642D01*
X0133290Y0020732D01*
X0133423Y0020818D01*
X0133558Y0020902D01*
X0133694Y0020981D01*
X0133833Y0021058D01*
X0133974Y0021130D01*
X0134116Y0021200D01*
X0134260Y0021265D01*
X0134406Y0021327D01*
X0134553Y0021385D01*
X0134702Y0021440D01*
X0134852Y0021491D01*
X0135003Y0021538D01*
X0135155Y0021581D01*
X0135308Y0021620D01*
X0135463Y0021656D01*
X0135618Y0021687D01*
X0135774Y0021715D01*
X0135930Y0021739D01*
X0136087Y0021759D01*
X0136245Y0021775D01*
X0136402Y0021787D01*
X0136561Y0021795D01*
X0136719Y0021799D01*
X0136877Y0021799D01*
X0137035Y0021795D01*
X0137194Y0021787D01*
X0137351Y0021775D01*
X0137509Y0021759D01*
X0137666Y0021739D01*
X0137822Y0021715D01*
X0137978Y0021687D01*
X0138133Y0021656D01*
X0138288Y0021620D01*
X0138441Y0021581D01*
X0138593Y0021538D01*
X0138744Y0021491D01*
X0138894Y0021440D01*
X0139043Y0021385D01*
X0139190Y0021327D01*
X0139336Y0021265D01*
X0139480Y0021200D01*
X0139622Y0021130D01*
X0139763Y0021058D01*
X0139902Y0020981D01*
X0140038Y0020902D01*
X0140173Y0020818D01*
X0140306Y0020732D01*
X0140436Y0020642D01*
X0140564Y0020549D01*
X0140690Y0020453D01*
X0140813Y0020353D01*
X0140934Y0020251D01*
X0141052Y0020146D01*
X0141167Y0020037D01*
X0141280Y0019926D01*
X0141390Y0019812D01*
X0141497Y0019695D01*
X0141601Y0019576D01*
X0141702Y0019454D01*
X0141799Y0019329D01*
X0141894Y0019202D01*
X0141985Y0019073D01*
X0142074Y0018942D01*
X0142158Y0018808D01*
X0142240Y0018672D01*
X0142318Y0018535D01*
X0142392Y0018395D01*
X0142463Y0018253D01*
X0142531Y0018110D01*
X0142595Y0017965D01*
X0142655Y0017819D01*
X0142711Y0017671D01*
X0142764Y0017522D01*
X0142813Y0017371D01*
X0142858Y0017219D01*
X0142899Y0017066D01*
X0142937Y0016913D01*
X0142970Y0016758D01*
X0143000Y0016602D01*
X0143026Y0016446D01*
X0143047Y0016289D01*
X0143065Y0016132D01*
X0143079Y0015974D01*
X0143089Y0015816D01*
X0143095Y0015658D01*
X0143097Y0015500D01*
X0143095Y0015342D01*
X0143089Y0015184D01*
X0143079Y0015026D01*
X0143065Y0014868D01*
X0143047Y0014711D01*
X0143026Y0014554D01*
X0143000Y0014398D01*
X0142970Y0014242D01*
X0142937Y0014087D01*
X0142899Y0013934D01*
X0142858Y0013781D01*
X0142813Y0013629D01*
X0142764Y0013478D01*
X0142711Y0013329D01*
X0142655Y0013181D01*
X0142595Y0013035D01*
X0142531Y0012890D01*
X0142463Y0012747D01*
X0142392Y0012605D01*
X0142318Y0012465D01*
X0142240Y0012328D01*
X0142158Y0012192D01*
X0142074Y0012058D01*
X0141985Y0011927D01*
X0141894Y0011798D01*
X0141799Y0011671D01*
X0141702Y0011546D01*
X0141601Y0011424D01*
X0141497Y0011305D01*
X0141390Y0011188D01*
X0141280Y0011074D01*
X0141167Y0010963D01*
X0141052Y0010854D01*
X0140934Y0010749D01*
X0140813Y0010647D01*
X0140690Y0010547D01*
X0140564Y0010451D01*
X0140436Y0010358D01*
X0140306Y0010268D01*
X0140173Y0010182D01*
X0140038Y0010098D01*
X0139902Y0010019D01*
X0139763Y0009942D01*
X0139622Y0009870D01*
X0139480Y0009800D01*
X0139336Y0009735D01*
X0139190Y0009673D01*
X0139043Y0009615D01*
X0138894Y0009560D01*
X0138744Y0009509D01*
X0138593Y0009462D01*
X0138441Y0009419D01*
X0138288Y0009380D01*
X0138133Y0009344D01*
X0137978Y0009313D01*
X0137822Y0009285D01*
X0137666Y0009261D01*
X0137509Y0009241D01*
X0137351Y0009225D01*
X0137194Y0009213D01*
X0137035Y0009205D01*
X0136877Y0009201D01*
X0136719Y0009201D01*
X0136561Y0009205D01*
X0136402Y0009213D01*
X0136245Y0009225D01*
X0136087Y0009241D01*
X0135930Y0009261D01*
X0135774Y0009285D01*
X0135618Y0009313D01*
X0135463Y0009344D01*
X0135308Y0009380D01*
X0135155Y0009419D01*
X0135003Y0009462D01*
X0134852Y0009509D01*
X0134702Y0009560D01*
X0134553Y0009615D01*
X0134406Y0009673D01*
X0134260Y0009735D01*
X0134116Y0009800D01*
X0133974Y0009870D01*
X0133833Y0009942D01*
X0133694Y0010019D01*
X0133558Y0010098D01*
X0133423Y0010182D01*
X0133290Y0010268D01*
X0133160Y0010358D01*
X0133032Y0010451D01*
X0132906Y0010547D01*
X0132783Y0010647D01*
X0132662Y0010749D01*
X0132544Y0010854D01*
X0132429Y0010963D01*
X0132316Y0011074D01*
X0132206Y0011188D01*
X0132099Y0011305D01*
X0131995Y0011424D01*
X0131894Y0011546D01*
X0131797Y0011671D01*
X0131702Y0011798D01*
X0131611Y0011927D01*
X0131522Y0012058D01*
X0131438Y0012192D01*
X0131356Y0012328D01*
X0131278Y0012465D01*
X0131204Y0012605D01*
X0131133Y0012747D01*
X0131065Y0012890D01*
X0131001Y0013035D01*
X0130941Y0013181D01*
X0130885Y0013329D01*
X0130832Y0013478D01*
X0130783Y0013629D01*
X0130738Y0013781D01*
X0130697Y0013934D01*
X0130659Y0014087D01*
X0130626Y0014242D01*
X0130596Y0014398D01*
X0130570Y0014554D01*
X0130549Y0014711D01*
X0130531Y0014868D01*
X0130517Y0015026D01*
X0130507Y0015184D01*
X0130501Y0015342D01*
X0130499Y0015500D01*
D18*
X0152332Y0102550D02*
X0151348Y0103534D01*
X0152332Y0102550D02*
X0154301Y0102550D01*
X0155285Y0103534D01*
X0155285Y0104518D01*
X0154301Y0105503D01*
X0153316Y0105503D01*
X0154301Y0105503D02*
X0155285Y0106487D01*
X0155285Y0107471D01*
X0154301Y0108455D01*
X0152332Y0108455D01*
X0151348Y0107471D01*
X0157793Y0108455D02*
X0157793Y0104518D01*
X0159762Y0102550D01*
X0161730Y0104518D01*
X0161730Y0108455D01*
X0164239Y0107471D02*
X0165223Y0108455D01*
X0167192Y0108455D01*
X0168176Y0107471D01*
X0168176Y0106487D01*
X0167192Y0105503D01*
X0168176Y0104518D01*
X0168176Y0103534D01*
X0167192Y0102550D01*
X0165223Y0102550D01*
X0164239Y0103534D01*
X0166207Y0105503D02*
X0167192Y0105503D01*
X0159762Y0122550D02*
X0161730Y0124518D01*
X0161730Y0128455D01*
X0157793Y0128455D02*
X0157793Y0124518D01*
X0159762Y0122550D01*
X0155285Y0123534D02*
X0155285Y0125503D01*
X0154301Y0126487D01*
X0153316Y0126487D01*
X0151348Y0125503D01*
X0151348Y0128455D01*
X0155285Y0128455D01*
X0155285Y0123534D02*
X0154301Y0122550D01*
X0152332Y0122550D01*
X0151348Y0123534D01*
D19*
X0116798Y0138423D02*
X0116798Y0139957D01*
X0116798Y0139190D02*
X0112194Y0139190D01*
X0112194Y0138423D02*
X0112194Y0139957D01*
X0112961Y0141492D02*
X0112194Y0142259D01*
X0112194Y0143794D01*
X0112961Y0144561D01*
X0112961Y0146096D02*
X0112194Y0146863D01*
X0112194Y0148398D01*
X0112961Y0149165D01*
X0113729Y0149165D01*
X0116798Y0146096D01*
X0116798Y0149165D01*
X0116031Y0144561D02*
X0116798Y0143794D01*
X0116798Y0142259D01*
X0116031Y0141492D01*
X0112961Y0141492D01*
X0112068Y0185483D02*
X0108999Y0185483D01*
X0108999Y0190087D01*
X0112068Y0190087D01*
X0113603Y0190087D02*
X0116672Y0190087D01*
X0115137Y0190087D02*
X0115137Y0185483D01*
X0110533Y0187785D02*
X0108999Y0187785D01*
X0107464Y0187018D02*
X0107464Y0186251D01*
X0106697Y0185483D01*
X0105162Y0185483D01*
X0104395Y0186251D01*
X0105162Y0187785D02*
X0106697Y0187785D01*
X0107464Y0187018D01*
X0107464Y0189320D02*
X0106697Y0190087D01*
X0105162Y0190087D01*
X0104395Y0189320D01*
X0104395Y0188553D01*
X0105162Y0187785D01*
X0102860Y0185483D02*
X0099791Y0185483D01*
X0099791Y0190087D01*
X0102860Y0190087D01*
X0101326Y0187785D02*
X0099791Y0187785D01*
X0098256Y0187785D02*
X0098256Y0189320D01*
X0097489Y0190087D01*
X0095187Y0190087D01*
X0095187Y0185483D01*
X0095187Y0187018D02*
X0097489Y0187018D01*
X0098256Y0187785D01*
X0096722Y0187018D02*
X0098256Y0185483D01*
X0116798Y0094165D02*
X0116798Y0091096D01*
X0116798Y0092631D02*
X0112194Y0092631D01*
X0113729Y0091096D01*
X0112961Y0089561D02*
X0112194Y0088794D01*
X0112194Y0087259D01*
X0112961Y0086492D01*
X0116031Y0086492D01*
X0116798Y0087259D01*
X0116798Y0088794D01*
X0116031Y0089561D01*
X0116798Y0084957D02*
X0116798Y0083423D01*
X0116798Y0084190D02*
X0112194Y0084190D01*
X0112194Y0083423D02*
X0112194Y0084957D01*
X0141898Y0059000D02*
X0159698Y0059000D01*
X0159698Y0044000D02*
X0141898Y0044000D01*
X0154696Y0036295D02*
X0173593Y0036295D01*
X0173593Y0027240D01*
X0172413Y0027240D02*
X0172318Y0027523D01*
X0172216Y0027804D01*
X0172107Y0028081D01*
X0171992Y0028357D01*
X0171870Y0028629D01*
X0171741Y0028898D01*
X0171606Y0029164D01*
X0171464Y0029426D01*
X0171316Y0029685D01*
X0171162Y0029941D01*
X0171001Y0030192D01*
X0170834Y0030440D01*
X0170662Y0030683D01*
X0170483Y0030922D01*
X0170299Y0031157D01*
X0170109Y0031387D01*
X0169913Y0031612D01*
X0169712Y0031832D01*
X0169506Y0032048D01*
X0169294Y0032258D01*
X0169078Y0032463D01*
X0168856Y0032663D01*
X0168629Y0032857D01*
X0168398Y0033046D01*
X0168163Y0033229D01*
X0167923Y0033406D01*
X0167678Y0033577D01*
X0167430Y0033742D01*
X0167177Y0033901D01*
X0166921Y0034054D01*
X0166661Y0034201D01*
X0166398Y0034341D01*
X0166131Y0034475D01*
X0165861Y0034602D01*
X0165588Y0034722D01*
X0165313Y0034836D01*
X0165034Y0034943D01*
X0164753Y0035043D01*
X0164470Y0035136D01*
X0164184Y0035223D01*
X0163896Y0035302D01*
X0163607Y0035374D01*
X0163316Y0035439D01*
X0163023Y0035497D01*
X0162729Y0035548D01*
X0162434Y0035592D01*
X0162138Y0035628D01*
X0161841Y0035657D01*
X0161543Y0035679D01*
X0161245Y0035694D01*
X0160947Y0035701D01*
X0160649Y0035701D01*
X0160351Y0035694D01*
X0160053Y0035679D01*
X0159755Y0035657D01*
X0159458Y0035628D01*
X0159162Y0035592D01*
X0158867Y0035548D01*
X0158573Y0035497D01*
X0158280Y0035439D01*
X0157989Y0035374D01*
X0157700Y0035302D01*
X0157412Y0035223D01*
X0157126Y0035136D01*
X0156843Y0035043D01*
X0156562Y0034943D01*
X0156283Y0034836D01*
X0156008Y0034722D01*
X0155735Y0034602D01*
X0155465Y0034475D01*
X0155198Y0034341D01*
X0154935Y0034201D01*
X0154675Y0034054D01*
X0154419Y0033901D01*
X0154166Y0033742D01*
X0153918Y0033577D01*
X0153673Y0033406D01*
X0153433Y0033229D01*
X0153198Y0033046D01*
X0152967Y0032857D01*
X0152740Y0032663D01*
X0152518Y0032463D01*
X0152302Y0032258D01*
X0152090Y0032048D01*
X0151884Y0031832D01*
X0151683Y0031612D01*
X0151487Y0031387D01*
X0151297Y0031157D01*
X0151113Y0030922D01*
X0150934Y0030683D01*
X0150762Y0030440D01*
X0150595Y0030192D01*
X0150434Y0029941D01*
X0150280Y0029685D01*
X0150132Y0029426D01*
X0149990Y0029164D01*
X0149855Y0028898D01*
X0149726Y0028629D01*
X0149604Y0028357D01*
X0149489Y0028081D01*
X0149380Y0027804D01*
X0149278Y0027523D01*
X0149183Y0027240D01*
X0148003Y0027240D02*
X0148003Y0029602D01*
X0154696Y0036295D01*
X0149183Y0019760D02*
X0149278Y0019477D01*
X0149380Y0019196D01*
X0149489Y0018919D01*
X0149604Y0018643D01*
X0149726Y0018371D01*
X0149855Y0018102D01*
X0149990Y0017836D01*
X0150132Y0017574D01*
X0150280Y0017315D01*
X0150434Y0017059D01*
X0150595Y0016808D01*
X0150762Y0016560D01*
X0150934Y0016317D01*
X0151113Y0016078D01*
X0151297Y0015843D01*
X0151487Y0015613D01*
X0151683Y0015388D01*
X0151884Y0015168D01*
X0152090Y0014952D01*
X0152302Y0014742D01*
X0152518Y0014537D01*
X0152740Y0014337D01*
X0152967Y0014143D01*
X0153198Y0013954D01*
X0153433Y0013771D01*
X0153673Y0013594D01*
X0153918Y0013423D01*
X0154166Y0013258D01*
X0154419Y0013099D01*
X0154675Y0012946D01*
X0154935Y0012799D01*
X0155198Y0012659D01*
X0155465Y0012525D01*
X0155735Y0012398D01*
X0156008Y0012278D01*
X0156283Y0012164D01*
X0156562Y0012057D01*
X0156843Y0011957D01*
X0157126Y0011864D01*
X0157412Y0011777D01*
X0157700Y0011698D01*
X0157989Y0011626D01*
X0158280Y0011561D01*
X0158573Y0011503D01*
X0158867Y0011452D01*
X0159162Y0011408D01*
X0159458Y0011372D01*
X0159755Y0011343D01*
X0160053Y0011321D01*
X0160351Y0011306D01*
X0160649Y0011299D01*
X0160947Y0011299D01*
X0161245Y0011306D01*
X0161543Y0011321D01*
X0161841Y0011343D01*
X0162138Y0011372D01*
X0162434Y0011408D01*
X0162729Y0011452D01*
X0163023Y0011503D01*
X0163316Y0011561D01*
X0163607Y0011626D01*
X0163896Y0011698D01*
X0164184Y0011777D01*
X0164470Y0011864D01*
X0164753Y0011957D01*
X0165034Y0012057D01*
X0165313Y0012164D01*
X0165588Y0012278D01*
X0165861Y0012398D01*
X0166131Y0012525D01*
X0166398Y0012659D01*
X0166661Y0012799D01*
X0166921Y0012946D01*
X0167177Y0013099D01*
X0167430Y0013258D01*
X0167678Y0013423D01*
X0167923Y0013594D01*
X0168163Y0013771D01*
X0168398Y0013954D01*
X0168629Y0014143D01*
X0168856Y0014337D01*
X0169078Y0014537D01*
X0169294Y0014742D01*
X0169506Y0014952D01*
X0169712Y0015168D01*
X0169913Y0015388D01*
X0170109Y0015613D01*
X0170299Y0015843D01*
X0170483Y0016078D01*
X0170662Y0016317D01*
X0170834Y0016560D01*
X0171001Y0016808D01*
X0171162Y0017059D01*
X0171316Y0017315D01*
X0171464Y0017574D01*
X0171606Y0017836D01*
X0171741Y0018102D01*
X0171870Y0018371D01*
X0171992Y0018643D01*
X0172107Y0018919D01*
X0172216Y0019196D01*
X0172318Y0019477D01*
X0172413Y0019760D01*
X0173593Y0019760D02*
X0173593Y0010705D01*
X0154696Y0010705D01*
X0148003Y0017398D01*
X0148003Y0019760D01*
D20*
X0102207Y0105638D03*
X0102207Y0110362D03*
X0102207Y0160638D03*
X0102207Y0165362D03*
D21*
X0102207Y0163000D03*
X0102207Y0108000D03*
D22*
X0102006Y0113450D02*
X0102490Y0113934D01*
X0102006Y0113450D02*
X0101039Y0113450D01*
X0100555Y0113934D01*
X0100555Y0115869D01*
X0101039Y0116352D01*
X0102006Y0116352D01*
X0102490Y0115869D01*
X0103501Y0115869D02*
X0103985Y0116352D01*
X0104953Y0116352D01*
X0105436Y0115869D01*
X0105436Y0115385D01*
X0104953Y0114901D01*
X0105436Y0114417D01*
X0105436Y0113934D01*
X0104953Y0113450D01*
X0103985Y0113450D01*
X0103501Y0113934D01*
X0104469Y0114901D02*
X0104953Y0114901D01*
X0119854Y0114095D02*
X0120338Y0113611D01*
X0121305Y0113611D01*
X0121789Y0114095D01*
X0122801Y0113611D02*
X0124736Y0115546D01*
X0124736Y0116030D01*
X0124252Y0116514D01*
X0123284Y0116514D01*
X0122801Y0116030D01*
X0121789Y0116030D02*
X0121305Y0116514D01*
X0120338Y0116514D01*
X0119854Y0116030D01*
X0119854Y0114095D01*
X0122801Y0113611D02*
X0124736Y0113611D01*
X0123453Y0103852D02*
X0122001Y0102401D01*
X0123936Y0102401D01*
X0123453Y0100950D02*
X0123453Y0103852D01*
X0120990Y0103369D02*
X0120990Y0102401D01*
X0120506Y0101917D01*
X0119055Y0101917D01*
X0119055Y0100950D02*
X0119055Y0103852D01*
X0120506Y0103852D01*
X0120990Y0103369D01*
X0120022Y0101917D02*
X0120990Y0100950D01*
X0121305Y0061514D02*
X0120338Y0061514D01*
X0119854Y0061030D01*
X0119854Y0059095D01*
X0120338Y0058611D01*
X0121305Y0058611D01*
X0121789Y0059095D01*
X0122801Y0059095D02*
X0123284Y0058611D01*
X0124252Y0058611D01*
X0124736Y0059095D01*
X0124736Y0060063D01*
X0124252Y0060546D01*
X0123768Y0060546D01*
X0122801Y0060063D01*
X0122801Y0061514D01*
X0124736Y0061514D01*
X0121789Y0061030D02*
X0121305Y0061514D01*
X0105436Y0058450D02*
X0103501Y0058450D01*
X0104469Y0058450D02*
X0104469Y0061352D01*
X0103501Y0060385D01*
X0102490Y0060869D02*
X0102006Y0061352D01*
X0101039Y0061352D01*
X0100555Y0060869D01*
X0100555Y0058934D01*
X0101039Y0058450D01*
X0102006Y0058450D01*
X0102490Y0058934D01*
X0238055Y0041869D02*
X0238055Y0039934D01*
X0238539Y0039450D01*
X0239506Y0039450D01*
X0239990Y0039934D01*
X0241001Y0039934D02*
X0241485Y0039450D01*
X0242453Y0039450D01*
X0242936Y0039934D01*
X0242936Y0040417D01*
X0242453Y0040901D01*
X0241001Y0040901D01*
X0241001Y0039934D01*
X0241001Y0040901D02*
X0241969Y0041869D01*
X0242936Y0042352D01*
X0239990Y0041869D02*
X0239506Y0042352D01*
X0238539Y0042352D01*
X0238055Y0041869D01*
X0270948Y0041069D02*
X0270948Y0039134D01*
X0271432Y0038650D01*
X0272399Y0038650D01*
X0272883Y0039134D01*
X0273895Y0039134D02*
X0273895Y0038650D01*
X0273895Y0039134D02*
X0275829Y0041069D01*
X0275829Y0041552D01*
X0273895Y0041552D01*
X0272883Y0041069D02*
X0272399Y0041552D01*
X0271432Y0041552D01*
X0270948Y0041069D01*
X0257329Y0092650D02*
X0255395Y0092650D01*
X0257329Y0094585D01*
X0257329Y0095069D01*
X0256846Y0095552D01*
X0255878Y0095552D01*
X0255395Y0095069D01*
X0254383Y0095069D02*
X0254383Y0094101D01*
X0253899Y0093617D01*
X0252448Y0093617D01*
X0252448Y0092650D02*
X0252448Y0095552D01*
X0253899Y0095552D01*
X0254383Y0095069D01*
X0253415Y0093617D02*
X0254383Y0092650D01*
X0255186Y0101465D02*
X0257121Y0103400D01*
X0257121Y0103884D01*
X0256637Y0104367D01*
X0255670Y0104367D01*
X0255186Y0103884D01*
X0254174Y0103884D02*
X0254174Y0104367D01*
X0254174Y0103884D02*
X0253207Y0102916D01*
X0253207Y0101465D01*
X0253207Y0102916D02*
X0252239Y0103884D01*
X0252239Y0104367D01*
X0255186Y0101465D02*
X0257121Y0101465D01*
X0136329Y0160634D02*
X0135846Y0160150D01*
X0134878Y0160150D01*
X0134395Y0160634D01*
X0133383Y0160150D02*
X0132415Y0161117D01*
X0132899Y0161117D02*
X0131448Y0161117D01*
X0131448Y0160150D02*
X0131448Y0163052D01*
X0132899Y0163052D01*
X0133383Y0162569D01*
X0133383Y0161601D01*
X0132899Y0161117D01*
X0134395Y0162569D02*
X0134878Y0163052D01*
X0135846Y0163052D01*
X0136329Y0162569D01*
X0136329Y0162085D01*
X0135846Y0161601D01*
X0136329Y0161117D01*
X0136329Y0160634D01*
X0135846Y0161601D02*
X0135362Y0161601D01*
X0136448Y0172150D02*
X0136448Y0175052D01*
X0137899Y0175052D01*
X0138383Y0174569D01*
X0138383Y0173601D01*
X0137899Y0173117D01*
X0136448Y0173117D01*
X0137415Y0173117D02*
X0138383Y0172150D01*
X0139395Y0172634D02*
X0139878Y0172150D01*
X0140846Y0172150D01*
X0141329Y0172634D01*
X0141329Y0173117D01*
X0140846Y0173601D01*
X0139395Y0173601D01*
X0139395Y0172634D01*
X0139395Y0173601D02*
X0140362Y0174569D01*
X0141329Y0175052D01*
X0140846Y0179650D02*
X0139878Y0179650D01*
X0139395Y0180134D01*
X0139395Y0181101D02*
X0140362Y0181585D01*
X0140846Y0181585D01*
X0141329Y0181101D01*
X0141329Y0180134D01*
X0140846Y0179650D01*
X0139395Y0181101D02*
X0139395Y0182552D01*
X0141329Y0182552D01*
X0138383Y0182069D02*
X0138383Y0181101D01*
X0137899Y0180617D01*
X0136448Y0180617D01*
X0136448Y0179650D02*
X0136448Y0182552D01*
X0137899Y0182552D01*
X0138383Y0182069D01*
X0137415Y0180617D02*
X0138383Y0179650D01*
X0096329Y0172150D02*
X0094395Y0172150D01*
X0095362Y0172150D02*
X0095362Y0175052D01*
X0094395Y0174085D01*
X0093383Y0174569D02*
X0093383Y0173601D01*
X0092899Y0173117D01*
X0091448Y0173117D01*
X0091448Y0172150D02*
X0091448Y0175052D01*
X0092899Y0175052D01*
X0093383Y0174569D01*
X0092415Y0173117D02*
X0093383Y0172150D01*
D23*
X0237999Y0106650D02*
X0237999Y0100350D01*
X0250597Y0100350D02*
X0250597Y0106650D01*
M02*
