%
M48
M72
T01C0.02362
T02C0.03346
T03C0.03740
T04C0.04000
T05C0.05118
T06C0.12598
%
T01
X131798Y183000
X131798Y175500
X114298Y169500
X103398Y169500
X109298Y150500
X109298Y145500
X109298Y140500
X109298Y135500
X114298Y135500
X114298Y140500
X114298Y145500
X114298Y150500
X136798Y150500
X144298Y163000
X159298Y160500
X184298Y158000
X201798Y165500
X166798Y178000
X150548Y194250
X236048Y141250
X234298Y122500
X269298Y135500
X270298Y143000
X279298Y143000
X279298Y103000
X336798Y70000
X271798Y15500
X260798Y35500
X236798Y45000
X236798Y25500
X169298Y33000
X160798Y33000
X115798Y31500
X114298Y75500
X114298Y80500
X114298Y85500
X114298Y90500
X109298Y90500
X109298Y85500
X109298Y80500
X109298Y75500
X109298Y95500
X114298Y95500
X162298Y120000
X161798Y135500
X114298Y130500
X109298Y130500
X254298Y205500
T02
X155798Y205500
X165798Y205500
X175798Y205500
X185798Y205500
X195798Y205500
X205798Y205500
X215798Y205500
X225798Y205500
X235798Y205500
X245798Y205500
X261798Y205500
X271798Y205500
X281798Y205500
X291798Y205500
X301798Y205500
X311798Y205500
X321798Y205500
X331798Y205500
X329298Y85000
X319298Y85000
X309298Y85000
X299298Y85000
X289298Y85000
X279298Y85000
X269298Y85000
X259298Y85000
X249298Y85000
X239298Y85000
X229298Y85000
X219298Y85000
X209298Y85000
X199298Y85000
X199298Y55000
X209298Y55000
X219298Y55000
X229298Y55000
X239298Y55000
X249298Y55000
X259298Y55000
X269298Y55000
X279298Y55000
X289298Y55000
X299298Y55000
X309298Y55000
X319298Y55000
X329298Y55000
X331798Y15500
X321798Y15500
X311798Y15500
X301798Y15500
X291798Y15500
X281798Y15500
X261798Y15500
X251798Y15500
X241798Y15500
X231798Y15500
X221798Y15500
X211798Y15500
X201798Y15500
X191798Y15500
T03
X332298Y125500
X342298Y125500
X342298Y115500
X332298Y115500
X332298Y105500
X342298Y105500
T04
X144298Y125500
X144298Y115500
X144298Y105500
T05
X118998Y18500
X115998Y18500
X112998Y18500
X104198Y35200
X104198Y38200
X104198Y41200
X127798Y41200
X127798Y38200
X127798Y35200
T06
X141798Y205500
X341798Y145500
X341798Y35500
X136798Y15500
M30
