G75*
%MOIN*%
%OFA0B0*%
%FSLAX25Y25*%
%IPPOS*%
%LPD*%
%AMOC8*
5,1,8,0,0,1.08239X$1,22.5*
%
%ADD10C,0.01000*%
%ADD11C,0.00000*%
D10*
X0081798Y0009437D02*
X0081798Y0211563D01*
X0081800Y0211687D01*
X0081806Y0211810D01*
X0081815Y0211934D01*
X0081829Y0212056D01*
X0081846Y0212179D01*
X0081868Y0212301D01*
X0081893Y0212422D01*
X0081922Y0212542D01*
X0081954Y0212661D01*
X0081991Y0212780D01*
X0082031Y0212897D01*
X0082074Y0213012D01*
X0082122Y0213127D01*
X0082173Y0213239D01*
X0082227Y0213350D01*
X0082285Y0213460D01*
X0082346Y0213567D01*
X0082411Y0213673D01*
X0082479Y0213776D01*
X0082550Y0213877D01*
X0082624Y0213976D01*
X0082701Y0214073D01*
X0082782Y0214167D01*
X0082865Y0214258D01*
X0082951Y0214347D01*
X0083040Y0214433D01*
X0083131Y0214516D01*
X0083225Y0214597D01*
X0083322Y0214674D01*
X0083421Y0214748D01*
X0083522Y0214819D01*
X0083625Y0214887D01*
X0083731Y0214952D01*
X0083838Y0215013D01*
X0083948Y0215071D01*
X0084059Y0215125D01*
X0084171Y0215176D01*
X0084286Y0215224D01*
X0084401Y0215267D01*
X0084518Y0215307D01*
X0084637Y0215344D01*
X0084756Y0215376D01*
X0084876Y0215405D01*
X0084997Y0215430D01*
X0085119Y0215452D01*
X0085242Y0215469D01*
X0085364Y0215483D01*
X0085488Y0215492D01*
X0085611Y0215498D01*
X0085735Y0215500D01*
X0335798Y0215500D01*
X0341798Y0209500D01*
X0341798Y0164500D01*
X0351798Y0154500D01*
X0351798Y0025500D01*
X0341798Y0015500D01*
X0341798Y0009437D01*
X0341796Y0009313D01*
X0341790Y0009190D01*
X0341781Y0009066D01*
X0341767Y0008944D01*
X0341750Y0008821D01*
X0341728Y0008699D01*
X0341703Y0008578D01*
X0341674Y0008458D01*
X0341642Y0008339D01*
X0341605Y0008220D01*
X0341565Y0008103D01*
X0341522Y0007988D01*
X0341474Y0007873D01*
X0341423Y0007761D01*
X0341369Y0007650D01*
X0341311Y0007540D01*
X0341250Y0007433D01*
X0341185Y0007327D01*
X0341117Y0007224D01*
X0341046Y0007123D01*
X0340972Y0007024D01*
X0340895Y0006927D01*
X0340814Y0006833D01*
X0340731Y0006742D01*
X0340645Y0006653D01*
X0340556Y0006567D01*
X0340465Y0006484D01*
X0340371Y0006403D01*
X0340274Y0006326D01*
X0340175Y0006252D01*
X0340074Y0006181D01*
X0339971Y0006113D01*
X0339865Y0006048D01*
X0339758Y0005987D01*
X0339648Y0005929D01*
X0339537Y0005875D01*
X0339425Y0005824D01*
X0339310Y0005776D01*
X0339195Y0005733D01*
X0339078Y0005693D01*
X0338959Y0005656D01*
X0338840Y0005624D01*
X0338720Y0005595D01*
X0338599Y0005570D01*
X0338477Y0005548D01*
X0338354Y0005531D01*
X0338232Y0005517D01*
X0338108Y0005508D01*
X0337985Y0005502D01*
X0337861Y0005500D01*
X0085735Y0005500D01*
X0085611Y0005502D01*
X0085488Y0005508D01*
X0085364Y0005517D01*
X0085242Y0005531D01*
X0085119Y0005548D01*
X0084997Y0005570D01*
X0084876Y0005595D01*
X0084756Y0005624D01*
X0084637Y0005656D01*
X0084518Y0005693D01*
X0084401Y0005733D01*
X0084286Y0005776D01*
X0084171Y0005824D01*
X0084059Y0005875D01*
X0083948Y0005929D01*
X0083838Y0005987D01*
X0083731Y0006048D01*
X0083625Y0006113D01*
X0083522Y0006181D01*
X0083421Y0006252D01*
X0083322Y0006326D01*
X0083225Y0006403D01*
X0083131Y0006484D01*
X0083040Y0006567D01*
X0082951Y0006653D01*
X0082865Y0006742D01*
X0082782Y0006833D01*
X0082701Y0006927D01*
X0082624Y0007024D01*
X0082550Y0007123D01*
X0082479Y0007224D01*
X0082411Y0007327D01*
X0082346Y0007433D01*
X0082285Y0007540D01*
X0082227Y0007650D01*
X0082173Y0007761D01*
X0082122Y0007873D01*
X0082074Y0007988D01*
X0082031Y0008103D01*
X0081991Y0008220D01*
X0081954Y0008339D01*
X0081922Y0008458D01*
X0081893Y0008578D01*
X0081868Y0008699D01*
X0081846Y0008821D01*
X0081829Y0008944D01*
X0081815Y0009066D01*
X0081806Y0009190D01*
X0081800Y0009313D01*
X0081798Y0009437D01*
D11*
X0130499Y0015500D02*
X0130501Y0015658D01*
X0130507Y0015816D01*
X0130517Y0015974D01*
X0130531Y0016132D01*
X0130549Y0016289D01*
X0130570Y0016446D01*
X0130596Y0016602D01*
X0130626Y0016758D01*
X0130659Y0016913D01*
X0130697Y0017066D01*
X0130738Y0017219D01*
X0130783Y0017371D01*
X0130832Y0017522D01*
X0130885Y0017671D01*
X0130941Y0017819D01*
X0131001Y0017965D01*
X0131065Y0018110D01*
X0131133Y0018253D01*
X0131204Y0018395D01*
X0131278Y0018535D01*
X0131356Y0018672D01*
X0131438Y0018808D01*
X0131522Y0018942D01*
X0131611Y0019073D01*
X0131702Y0019202D01*
X0131797Y0019329D01*
X0131894Y0019454D01*
X0131995Y0019576D01*
X0132099Y0019695D01*
X0132206Y0019812D01*
X0132316Y0019926D01*
X0132429Y0020037D01*
X0132544Y0020146D01*
X0132662Y0020251D01*
X0132783Y0020353D01*
X0132906Y0020453D01*
X0133032Y0020549D01*
X0133160Y0020642D01*
X0133290Y0020732D01*
X0133423Y0020818D01*
X0133558Y0020902D01*
X0133694Y0020981D01*
X0133833Y0021058D01*
X0133974Y0021130D01*
X0134116Y0021200D01*
X0134260Y0021265D01*
X0134406Y0021327D01*
X0134553Y0021385D01*
X0134702Y0021440D01*
X0134852Y0021491D01*
X0135003Y0021538D01*
X0135155Y0021581D01*
X0135308Y0021620D01*
X0135463Y0021656D01*
X0135618Y0021687D01*
X0135774Y0021715D01*
X0135930Y0021739D01*
X0136087Y0021759D01*
X0136245Y0021775D01*
X0136402Y0021787D01*
X0136561Y0021795D01*
X0136719Y0021799D01*
X0136877Y0021799D01*
X0137035Y0021795D01*
X0137194Y0021787D01*
X0137351Y0021775D01*
X0137509Y0021759D01*
X0137666Y0021739D01*
X0137822Y0021715D01*
X0137978Y0021687D01*
X0138133Y0021656D01*
X0138288Y0021620D01*
X0138441Y0021581D01*
X0138593Y0021538D01*
X0138744Y0021491D01*
X0138894Y0021440D01*
X0139043Y0021385D01*
X0139190Y0021327D01*
X0139336Y0021265D01*
X0139480Y0021200D01*
X0139622Y0021130D01*
X0139763Y0021058D01*
X0139902Y0020981D01*
X0140038Y0020902D01*
X0140173Y0020818D01*
X0140306Y0020732D01*
X0140436Y0020642D01*
X0140564Y0020549D01*
X0140690Y0020453D01*
X0140813Y0020353D01*
X0140934Y0020251D01*
X0141052Y0020146D01*
X0141167Y0020037D01*
X0141280Y0019926D01*
X0141390Y0019812D01*
X0141497Y0019695D01*
X0141601Y0019576D01*
X0141702Y0019454D01*
X0141799Y0019329D01*
X0141894Y0019202D01*
X0141985Y0019073D01*
X0142074Y0018942D01*
X0142158Y0018808D01*
X0142240Y0018672D01*
X0142318Y0018535D01*
X0142392Y0018395D01*
X0142463Y0018253D01*
X0142531Y0018110D01*
X0142595Y0017965D01*
X0142655Y0017819D01*
X0142711Y0017671D01*
X0142764Y0017522D01*
X0142813Y0017371D01*
X0142858Y0017219D01*
X0142899Y0017066D01*
X0142937Y0016913D01*
X0142970Y0016758D01*
X0143000Y0016602D01*
X0143026Y0016446D01*
X0143047Y0016289D01*
X0143065Y0016132D01*
X0143079Y0015974D01*
X0143089Y0015816D01*
X0143095Y0015658D01*
X0143097Y0015500D01*
X0143095Y0015342D01*
X0143089Y0015184D01*
X0143079Y0015026D01*
X0143065Y0014868D01*
X0143047Y0014711D01*
X0143026Y0014554D01*
X0143000Y0014398D01*
X0142970Y0014242D01*
X0142937Y0014087D01*
X0142899Y0013934D01*
X0142858Y0013781D01*
X0142813Y0013629D01*
X0142764Y0013478D01*
X0142711Y0013329D01*
X0142655Y0013181D01*
X0142595Y0013035D01*
X0142531Y0012890D01*
X0142463Y0012747D01*
X0142392Y0012605D01*
X0142318Y0012465D01*
X0142240Y0012328D01*
X0142158Y0012192D01*
X0142074Y0012058D01*
X0141985Y0011927D01*
X0141894Y0011798D01*
X0141799Y0011671D01*
X0141702Y0011546D01*
X0141601Y0011424D01*
X0141497Y0011305D01*
X0141390Y0011188D01*
X0141280Y0011074D01*
X0141167Y0010963D01*
X0141052Y0010854D01*
X0140934Y0010749D01*
X0140813Y0010647D01*
X0140690Y0010547D01*
X0140564Y0010451D01*
X0140436Y0010358D01*
X0140306Y0010268D01*
X0140173Y0010182D01*
X0140038Y0010098D01*
X0139902Y0010019D01*
X0139763Y0009942D01*
X0139622Y0009870D01*
X0139480Y0009800D01*
X0139336Y0009735D01*
X0139190Y0009673D01*
X0139043Y0009615D01*
X0138894Y0009560D01*
X0138744Y0009509D01*
X0138593Y0009462D01*
X0138441Y0009419D01*
X0138288Y0009380D01*
X0138133Y0009344D01*
X0137978Y0009313D01*
X0137822Y0009285D01*
X0137666Y0009261D01*
X0137509Y0009241D01*
X0137351Y0009225D01*
X0137194Y0009213D01*
X0137035Y0009205D01*
X0136877Y0009201D01*
X0136719Y0009201D01*
X0136561Y0009205D01*
X0136402Y0009213D01*
X0136245Y0009225D01*
X0136087Y0009241D01*
X0135930Y0009261D01*
X0135774Y0009285D01*
X0135618Y0009313D01*
X0135463Y0009344D01*
X0135308Y0009380D01*
X0135155Y0009419D01*
X0135003Y0009462D01*
X0134852Y0009509D01*
X0134702Y0009560D01*
X0134553Y0009615D01*
X0134406Y0009673D01*
X0134260Y0009735D01*
X0134116Y0009800D01*
X0133974Y0009870D01*
X0133833Y0009942D01*
X0133694Y0010019D01*
X0133558Y0010098D01*
X0133423Y0010182D01*
X0133290Y0010268D01*
X0133160Y0010358D01*
X0133032Y0010451D01*
X0132906Y0010547D01*
X0132783Y0010647D01*
X0132662Y0010749D01*
X0132544Y0010854D01*
X0132429Y0010963D01*
X0132316Y0011074D01*
X0132206Y0011188D01*
X0132099Y0011305D01*
X0131995Y0011424D01*
X0131894Y0011546D01*
X0131797Y0011671D01*
X0131702Y0011798D01*
X0131611Y0011927D01*
X0131522Y0012058D01*
X0131438Y0012192D01*
X0131356Y0012328D01*
X0131278Y0012465D01*
X0131204Y0012605D01*
X0131133Y0012747D01*
X0131065Y0012890D01*
X0131001Y0013035D01*
X0130941Y0013181D01*
X0130885Y0013329D01*
X0130832Y0013478D01*
X0130783Y0013629D01*
X0130738Y0013781D01*
X0130697Y0013934D01*
X0130659Y0014087D01*
X0130626Y0014242D01*
X0130596Y0014398D01*
X0130570Y0014554D01*
X0130549Y0014711D01*
X0130531Y0014868D01*
X0130517Y0015026D01*
X0130507Y0015184D01*
X0130501Y0015342D01*
X0130499Y0015500D01*
X0335499Y0035500D02*
X0335501Y0035658D01*
X0335507Y0035816D01*
X0335517Y0035974D01*
X0335531Y0036132D01*
X0335549Y0036289D01*
X0335570Y0036446D01*
X0335596Y0036602D01*
X0335626Y0036758D01*
X0335659Y0036913D01*
X0335697Y0037066D01*
X0335738Y0037219D01*
X0335783Y0037371D01*
X0335832Y0037522D01*
X0335885Y0037671D01*
X0335941Y0037819D01*
X0336001Y0037965D01*
X0336065Y0038110D01*
X0336133Y0038253D01*
X0336204Y0038395D01*
X0336278Y0038535D01*
X0336356Y0038672D01*
X0336438Y0038808D01*
X0336522Y0038942D01*
X0336611Y0039073D01*
X0336702Y0039202D01*
X0336797Y0039329D01*
X0336894Y0039454D01*
X0336995Y0039576D01*
X0337099Y0039695D01*
X0337206Y0039812D01*
X0337316Y0039926D01*
X0337429Y0040037D01*
X0337544Y0040146D01*
X0337662Y0040251D01*
X0337783Y0040353D01*
X0337906Y0040453D01*
X0338032Y0040549D01*
X0338160Y0040642D01*
X0338290Y0040732D01*
X0338423Y0040818D01*
X0338558Y0040902D01*
X0338694Y0040981D01*
X0338833Y0041058D01*
X0338974Y0041130D01*
X0339116Y0041200D01*
X0339260Y0041265D01*
X0339406Y0041327D01*
X0339553Y0041385D01*
X0339702Y0041440D01*
X0339852Y0041491D01*
X0340003Y0041538D01*
X0340155Y0041581D01*
X0340308Y0041620D01*
X0340463Y0041656D01*
X0340618Y0041687D01*
X0340774Y0041715D01*
X0340930Y0041739D01*
X0341087Y0041759D01*
X0341245Y0041775D01*
X0341402Y0041787D01*
X0341561Y0041795D01*
X0341719Y0041799D01*
X0341877Y0041799D01*
X0342035Y0041795D01*
X0342194Y0041787D01*
X0342351Y0041775D01*
X0342509Y0041759D01*
X0342666Y0041739D01*
X0342822Y0041715D01*
X0342978Y0041687D01*
X0343133Y0041656D01*
X0343288Y0041620D01*
X0343441Y0041581D01*
X0343593Y0041538D01*
X0343744Y0041491D01*
X0343894Y0041440D01*
X0344043Y0041385D01*
X0344190Y0041327D01*
X0344336Y0041265D01*
X0344480Y0041200D01*
X0344622Y0041130D01*
X0344763Y0041058D01*
X0344902Y0040981D01*
X0345038Y0040902D01*
X0345173Y0040818D01*
X0345306Y0040732D01*
X0345436Y0040642D01*
X0345564Y0040549D01*
X0345690Y0040453D01*
X0345813Y0040353D01*
X0345934Y0040251D01*
X0346052Y0040146D01*
X0346167Y0040037D01*
X0346280Y0039926D01*
X0346390Y0039812D01*
X0346497Y0039695D01*
X0346601Y0039576D01*
X0346702Y0039454D01*
X0346799Y0039329D01*
X0346894Y0039202D01*
X0346985Y0039073D01*
X0347074Y0038942D01*
X0347158Y0038808D01*
X0347240Y0038672D01*
X0347318Y0038535D01*
X0347392Y0038395D01*
X0347463Y0038253D01*
X0347531Y0038110D01*
X0347595Y0037965D01*
X0347655Y0037819D01*
X0347711Y0037671D01*
X0347764Y0037522D01*
X0347813Y0037371D01*
X0347858Y0037219D01*
X0347899Y0037066D01*
X0347937Y0036913D01*
X0347970Y0036758D01*
X0348000Y0036602D01*
X0348026Y0036446D01*
X0348047Y0036289D01*
X0348065Y0036132D01*
X0348079Y0035974D01*
X0348089Y0035816D01*
X0348095Y0035658D01*
X0348097Y0035500D01*
X0348095Y0035342D01*
X0348089Y0035184D01*
X0348079Y0035026D01*
X0348065Y0034868D01*
X0348047Y0034711D01*
X0348026Y0034554D01*
X0348000Y0034398D01*
X0347970Y0034242D01*
X0347937Y0034087D01*
X0347899Y0033934D01*
X0347858Y0033781D01*
X0347813Y0033629D01*
X0347764Y0033478D01*
X0347711Y0033329D01*
X0347655Y0033181D01*
X0347595Y0033035D01*
X0347531Y0032890D01*
X0347463Y0032747D01*
X0347392Y0032605D01*
X0347318Y0032465D01*
X0347240Y0032328D01*
X0347158Y0032192D01*
X0347074Y0032058D01*
X0346985Y0031927D01*
X0346894Y0031798D01*
X0346799Y0031671D01*
X0346702Y0031546D01*
X0346601Y0031424D01*
X0346497Y0031305D01*
X0346390Y0031188D01*
X0346280Y0031074D01*
X0346167Y0030963D01*
X0346052Y0030854D01*
X0345934Y0030749D01*
X0345813Y0030647D01*
X0345690Y0030547D01*
X0345564Y0030451D01*
X0345436Y0030358D01*
X0345306Y0030268D01*
X0345173Y0030182D01*
X0345038Y0030098D01*
X0344902Y0030019D01*
X0344763Y0029942D01*
X0344622Y0029870D01*
X0344480Y0029800D01*
X0344336Y0029735D01*
X0344190Y0029673D01*
X0344043Y0029615D01*
X0343894Y0029560D01*
X0343744Y0029509D01*
X0343593Y0029462D01*
X0343441Y0029419D01*
X0343288Y0029380D01*
X0343133Y0029344D01*
X0342978Y0029313D01*
X0342822Y0029285D01*
X0342666Y0029261D01*
X0342509Y0029241D01*
X0342351Y0029225D01*
X0342194Y0029213D01*
X0342035Y0029205D01*
X0341877Y0029201D01*
X0341719Y0029201D01*
X0341561Y0029205D01*
X0341402Y0029213D01*
X0341245Y0029225D01*
X0341087Y0029241D01*
X0340930Y0029261D01*
X0340774Y0029285D01*
X0340618Y0029313D01*
X0340463Y0029344D01*
X0340308Y0029380D01*
X0340155Y0029419D01*
X0340003Y0029462D01*
X0339852Y0029509D01*
X0339702Y0029560D01*
X0339553Y0029615D01*
X0339406Y0029673D01*
X0339260Y0029735D01*
X0339116Y0029800D01*
X0338974Y0029870D01*
X0338833Y0029942D01*
X0338694Y0030019D01*
X0338558Y0030098D01*
X0338423Y0030182D01*
X0338290Y0030268D01*
X0338160Y0030358D01*
X0338032Y0030451D01*
X0337906Y0030547D01*
X0337783Y0030647D01*
X0337662Y0030749D01*
X0337544Y0030854D01*
X0337429Y0030963D01*
X0337316Y0031074D01*
X0337206Y0031188D01*
X0337099Y0031305D01*
X0336995Y0031424D01*
X0336894Y0031546D01*
X0336797Y0031671D01*
X0336702Y0031798D01*
X0336611Y0031927D01*
X0336522Y0032058D01*
X0336438Y0032192D01*
X0336356Y0032328D01*
X0336278Y0032465D01*
X0336204Y0032605D01*
X0336133Y0032747D01*
X0336065Y0032890D01*
X0336001Y0033035D01*
X0335941Y0033181D01*
X0335885Y0033329D01*
X0335832Y0033478D01*
X0335783Y0033629D01*
X0335738Y0033781D01*
X0335697Y0033934D01*
X0335659Y0034087D01*
X0335626Y0034242D01*
X0335596Y0034398D01*
X0335570Y0034554D01*
X0335549Y0034711D01*
X0335531Y0034868D01*
X0335517Y0035026D01*
X0335507Y0035184D01*
X0335501Y0035342D01*
X0335499Y0035500D01*
X0335499Y0145500D02*
X0335501Y0145658D01*
X0335507Y0145816D01*
X0335517Y0145974D01*
X0335531Y0146132D01*
X0335549Y0146289D01*
X0335570Y0146446D01*
X0335596Y0146602D01*
X0335626Y0146758D01*
X0335659Y0146913D01*
X0335697Y0147066D01*
X0335738Y0147219D01*
X0335783Y0147371D01*
X0335832Y0147522D01*
X0335885Y0147671D01*
X0335941Y0147819D01*
X0336001Y0147965D01*
X0336065Y0148110D01*
X0336133Y0148253D01*
X0336204Y0148395D01*
X0336278Y0148535D01*
X0336356Y0148672D01*
X0336438Y0148808D01*
X0336522Y0148942D01*
X0336611Y0149073D01*
X0336702Y0149202D01*
X0336797Y0149329D01*
X0336894Y0149454D01*
X0336995Y0149576D01*
X0337099Y0149695D01*
X0337206Y0149812D01*
X0337316Y0149926D01*
X0337429Y0150037D01*
X0337544Y0150146D01*
X0337662Y0150251D01*
X0337783Y0150353D01*
X0337906Y0150453D01*
X0338032Y0150549D01*
X0338160Y0150642D01*
X0338290Y0150732D01*
X0338423Y0150818D01*
X0338558Y0150902D01*
X0338694Y0150981D01*
X0338833Y0151058D01*
X0338974Y0151130D01*
X0339116Y0151200D01*
X0339260Y0151265D01*
X0339406Y0151327D01*
X0339553Y0151385D01*
X0339702Y0151440D01*
X0339852Y0151491D01*
X0340003Y0151538D01*
X0340155Y0151581D01*
X0340308Y0151620D01*
X0340463Y0151656D01*
X0340618Y0151687D01*
X0340774Y0151715D01*
X0340930Y0151739D01*
X0341087Y0151759D01*
X0341245Y0151775D01*
X0341402Y0151787D01*
X0341561Y0151795D01*
X0341719Y0151799D01*
X0341877Y0151799D01*
X0342035Y0151795D01*
X0342194Y0151787D01*
X0342351Y0151775D01*
X0342509Y0151759D01*
X0342666Y0151739D01*
X0342822Y0151715D01*
X0342978Y0151687D01*
X0343133Y0151656D01*
X0343288Y0151620D01*
X0343441Y0151581D01*
X0343593Y0151538D01*
X0343744Y0151491D01*
X0343894Y0151440D01*
X0344043Y0151385D01*
X0344190Y0151327D01*
X0344336Y0151265D01*
X0344480Y0151200D01*
X0344622Y0151130D01*
X0344763Y0151058D01*
X0344902Y0150981D01*
X0345038Y0150902D01*
X0345173Y0150818D01*
X0345306Y0150732D01*
X0345436Y0150642D01*
X0345564Y0150549D01*
X0345690Y0150453D01*
X0345813Y0150353D01*
X0345934Y0150251D01*
X0346052Y0150146D01*
X0346167Y0150037D01*
X0346280Y0149926D01*
X0346390Y0149812D01*
X0346497Y0149695D01*
X0346601Y0149576D01*
X0346702Y0149454D01*
X0346799Y0149329D01*
X0346894Y0149202D01*
X0346985Y0149073D01*
X0347074Y0148942D01*
X0347158Y0148808D01*
X0347240Y0148672D01*
X0347318Y0148535D01*
X0347392Y0148395D01*
X0347463Y0148253D01*
X0347531Y0148110D01*
X0347595Y0147965D01*
X0347655Y0147819D01*
X0347711Y0147671D01*
X0347764Y0147522D01*
X0347813Y0147371D01*
X0347858Y0147219D01*
X0347899Y0147066D01*
X0347937Y0146913D01*
X0347970Y0146758D01*
X0348000Y0146602D01*
X0348026Y0146446D01*
X0348047Y0146289D01*
X0348065Y0146132D01*
X0348079Y0145974D01*
X0348089Y0145816D01*
X0348095Y0145658D01*
X0348097Y0145500D01*
X0348095Y0145342D01*
X0348089Y0145184D01*
X0348079Y0145026D01*
X0348065Y0144868D01*
X0348047Y0144711D01*
X0348026Y0144554D01*
X0348000Y0144398D01*
X0347970Y0144242D01*
X0347937Y0144087D01*
X0347899Y0143934D01*
X0347858Y0143781D01*
X0347813Y0143629D01*
X0347764Y0143478D01*
X0347711Y0143329D01*
X0347655Y0143181D01*
X0347595Y0143035D01*
X0347531Y0142890D01*
X0347463Y0142747D01*
X0347392Y0142605D01*
X0347318Y0142465D01*
X0347240Y0142328D01*
X0347158Y0142192D01*
X0347074Y0142058D01*
X0346985Y0141927D01*
X0346894Y0141798D01*
X0346799Y0141671D01*
X0346702Y0141546D01*
X0346601Y0141424D01*
X0346497Y0141305D01*
X0346390Y0141188D01*
X0346280Y0141074D01*
X0346167Y0140963D01*
X0346052Y0140854D01*
X0345934Y0140749D01*
X0345813Y0140647D01*
X0345690Y0140547D01*
X0345564Y0140451D01*
X0345436Y0140358D01*
X0345306Y0140268D01*
X0345173Y0140182D01*
X0345038Y0140098D01*
X0344902Y0140019D01*
X0344763Y0139942D01*
X0344622Y0139870D01*
X0344480Y0139800D01*
X0344336Y0139735D01*
X0344190Y0139673D01*
X0344043Y0139615D01*
X0343894Y0139560D01*
X0343744Y0139509D01*
X0343593Y0139462D01*
X0343441Y0139419D01*
X0343288Y0139380D01*
X0343133Y0139344D01*
X0342978Y0139313D01*
X0342822Y0139285D01*
X0342666Y0139261D01*
X0342509Y0139241D01*
X0342351Y0139225D01*
X0342194Y0139213D01*
X0342035Y0139205D01*
X0341877Y0139201D01*
X0341719Y0139201D01*
X0341561Y0139205D01*
X0341402Y0139213D01*
X0341245Y0139225D01*
X0341087Y0139241D01*
X0340930Y0139261D01*
X0340774Y0139285D01*
X0340618Y0139313D01*
X0340463Y0139344D01*
X0340308Y0139380D01*
X0340155Y0139419D01*
X0340003Y0139462D01*
X0339852Y0139509D01*
X0339702Y0139560D01*
X0339553Y0139615D01*
X0339406Y0139673D01*
X0339260Y0139735D01*
X0339116Y0139800D01*
X0338974Y0139870D01*
X0338833Y0139942D01*
X0338694Y0140019D01*
X0338558Y0140098D01*
X0338423Y0140182D01*
X0338290Y0140268D01*
X0338160Y0140358D01*
X0338032Y0140451D01*
X0337906Y0140547D01*
X0337783Y0140647D01*
X0337662Y0140749D01*
X0337544Y0140854D01*
X0337429Y0140963D01*
X0337316Y0141074D01*
X0337206Y0141188D01*
X0337099Y0141305D01*
X0336995Y0141424D01*
X0336894Y0141546D01*
X0336797Y0141671D01*
X0336702Y0141798D01*
X0336611Y0141927D01*
X0336522Y0142058D01*
X0336438Y0142192D01*
X0336356Y0142328D01*
X0336278Y0142465D01*
X0336204Y0142605D01*
X0336133Y0142747D01*
X0336065Y0142890D01*
X0336001Y0143035D01*
X0335941Y0143181D01*
X0335885Y0143329D01*
X0335832Y0143478D01*
X0335783Y0143629D01*
X0335738Y0143781D01*
X0335697Y0143934D01*
X0335659Y0144087D01*
X0335626Y0144242D01*
X0335596Y0144398D01*
X0335570Y0144554D01*
X0335549Y0144711D01*
X0335531Y0144868D01*
X0335517Y0145026D01*
X0335507Y0145184D01*
X0335501Y0145342D01*
X0335499Y0145500D01*
X0135499Y0205500D02*
X0135501Y0205658D01*
X0135507Y0205816D01*
X0135517Y0205974D01*
X0135531Y0206132D01*
X0135549Y0206289D01*
X0135570Y0206446D01*
X0135596Y0206602D01*
X0135626Y0206758D01*
X0135659Y0206913D01*
X0135697Y0207066D01*
X0135738Y0207219D01*
X0135783Y0207371D01*
X0135832Y0207522D01*
X0135885Y0207671D01*
X0135941Y0207819D01*
X0136001Y0207965D01*
X0136065Y0208110D01*
X0136133Y0208253D01*
X0136204Y0208395D01*
X0136278Y0208535D01*
X0136356Y0208672D01*
X0136438Y0208808D01*
X0136522Y0208942D01*
X0136611Y0209073D01*
X0136702Y0209202D01*
X0136797Y0209329D01*
X0136894Y0209454D01*
X0136995Y0209576D01*
X0137099Y0209695D01*
X0137206Y0209812D01*
X0137316Y0209926D01*
X0137429Y0210037D01*
X0137544Y0210146D01*
X0137662Y0210251D01*
X0137783Y0210353D01*
X0137906Y0210453D01*
X0138032Y0210549D01*
X0138160Y0210642D01*
X0138290Y0210732D01*
X0138423Y0210818D01*
X0138558Y0210902D01*
X0138694Y0210981D01*
X0138833Y0211058D01*
X0138974Y0211130D01*
X0139116Y0211200D01*
X0139260Y0211265D01*
X0139406Y0211327D01*
X0139553Y0211385D01*
X0139702Y0211440D01*
X0139852Y0211491D01*
X0140003Y0211538D01*
X0140155Y0211581D01*
X0140308Y0211620D01*
X0140463Y0211656D01*
X0140618Y0211687D01*
X0140774Y0211715D01*
X0140930Y0211739D01*
X0141087Y0211759D01*
X0141245Y0211775D01*
X0141402Y0211787D01*
X0141561Y0211795D01*
X0141719Y0211799D01*
X0141877Y0211799D01*
X0142035Y0211795D01*
X0142194Y0211787D01*
X0142351Y0211775D01*
X0142509Y0211759D01*
X0142666Y0211739D01*
X0142822Y0211715D01*
X0142978Y0211687D01*
X0143133Y0211656D01*
X0143288Y0211620D01*
X0143441Y0211581D01*
X0143593Y0211538D01*
X0143744Y0211491D01*
X0143894Y0211440D01*
X0144043Y0211385D01*
X0144190Y0211327D01*
X0144336Y0211265D01*
X0144480Y0211200D01*
X0144622Y0211130D01*
X0144763Y0211058D01*
X0144902Y0210981D01*
X0145038Y0210902D01*
X0145173Y0210818D01*
X0145306Y0210732D01*
X0145436Y0210642D01*
X0145564Y0210549D01*
X0145690Y0210453D01*
X0145813Y0210353D01*
X0145934Y0210251D01*
X0146052Y0210146D01*
X0146167Y0210037D01*
X0146280Y0209926D01*
X0146390Y0209812D01*
X0146497Y0209695D01*
X0146601Y0209576D01*
X0146702Y0209454D01*
X0146799Y0209329D01*
X0146894Y0209202D01*
X0146985Y0209073D01*
X0147074Y0208942D01*
X0147158Y0208808D01*
X0147240Y0208672D01*
X0147318Y0208535D01*
X0147392Y0208395D01*
X0147463Y0208253D01*
X0147531Y0208110D01*
X0147595Y0207965D01*
X0147655Y0207819D01*
X0147711Y0207671D01*
X0147764Y0207522D01*
X0147813Y0207371D01*
X0147858Y0207219D01*
X0147899Y0207066D01*
X0147937Y0206913D01*
X0147970Y0206758D01*
X0148000Y0206602D01*
X0148026Y0206446D01*
X0148047Y0206289D01*
X0148065Y0206132D01*
X0148079Y0205974D01*
X0148089Y0205816D01*
X0148095Y0205658D01*
X0148097Y0205500D01*
X0148095Y0205342D01*
X0148089Y0205184D01*
X0148079Y0205026D01*
X0148065Y0204868D01*
X0148047Y0204711D01*
X0148026Y0204554D01*
X0148000Y0204398D01*
X0147970Y0204242D01*
X0147937Y0204087D01*
X0147899Y0203934D01*
X0147858Y0203781D01*
X0147813Y0203629D01*
X0147764Y0203478D01*
X0147711Y0203329D01*
X0147655Y0203181D01*
X0147595Y0203035D01*
X0147531Y0202890D01*
X0147463Y0202747D01*
X0147392Y0202605D01*
X0147318Y0202465D01*
X0147240Y0202328D01*
X0147158Y0202192D01*
X0147074Y0202058D01*
X0146985Y0201927D01*
X0146894Y0201798D01*
X0146799Y0201671D01*
X0146702Y0201546D01*
X0146601Y0201424D01*
X0146497Y0201305D01*
X0146390Y0201188D01*
X0146280Y0201074D01*
X0146167Y0200963D01*
X0146052Y0200854D01*
X0145934Y0200749D01*
X0145813Y0200647D01*
X0145690Y0200547D01*
X0145564Y0200451D01*
X0145436Y0200358D01*
X0145306Y0200268D01*
X0145173Y0200182D01*
X0145038Y0200098D01*
X0144902Y0200019D01*
X0144763Y0199942D01*
X0144622Y0199870D01*
X0144480Y0199800D01*
X0144336Y0199735D01*
X0144190Y0199673D01*
X0144043Y0199615D01*
X0143894Y0199560D01*
X0143744Y0199509D01*
X0143593Y0199462D01*
X0143441Y0199419D01*
X0143288Y0199380D01*
X0143133Y0199344D01*
X0142978Y0199313D01*
X0142822Y0199285D01*
X0142666Y0199261D01*
X0142509Y0199241D01*
X0142351Y0199225D01*
X0142194Y0199213D01*
X0142035Y0199205D01*
X0141877Y0199201D01*
X0141719Y0199201D01*
X0141561Y0199205D01*
X0141402Y0199213D01*
X0141245Y0199225D01*
X0141087Y0199241D01*
X0140930Y0199261D01*
X0140774Y0199285D01*
X0140618Y0199313D01*
X0140463Y0199344D01*
X0140308Y0199380D01*
X0140155Y0199419D01*
X0140003Y0199462D01*
X0139852Y0199509D01*
X0139702Y0199560D01*
X0139553Y0199615D01*
X0139406Y0199673D01*
X0139260Y0199735D01*
X0139116Y0199800D01*
X0138974Y0199870D01*
X0138833Y0199942D01*
X0138694Y0200019D01*
X0138558Y0200098D01*
X0138423Y0200182D01*
X0138290Y0200268D01*
X0138160Y0200358D01*
X0138032Y0200451D01*
X0137906Y0200547D01*
X0137783Y0200647D01*
X0137662Y0200749D01*
X0137544Y0200854D01*
X0137429Y0200963D01*
X0137316Y0201074D01*
X0137206Y0201188D01*
X0137099Y0201305D01*
X0136995Y0201424D01*
X0136894Y0201546D01*
X0136797Y0201671D01*
X0136702Y0201798D01*
X0136611Y0201927D01*
X0136522Y0202058D01*
X0136438Y0202192D01*
X0136356Y0202328D01*
X0136278Y0202465D01*
X0136204Y0202605D01*
X0136133Y0202747D01*
X0136065Y0202890D01*
X0136001Y0203035D01*
X0135941Y0203181D01*
X0135885Y0203329D01*
X0135832Y0203478D01*
X0135783Y0203629D01*
X0135738Y0203781D01*
X0135697Y0203934D01*
X0135659Y0204087D01*
X0135626Y0204242D01*
X0135596Y0204398D01*
X0135570Y0204554D01*
X0135549Y0204711D01*
X0135531Y0204868D01*
X0135517Y0205026D01*
X0135507Y0205184D01*
X0135501Y0205342D01*
X0135499Y0205500D01*
M02*
